<?xml version="1.0" encoding="UTF-8"?>
<svg xmlns="http://www.w3.org/2000/svg" xmlns:xlink="http://www.w3.org/1999/xlink" width="16px" height="25px" viewBox="0 0 16 25" version="1.1">
<g id="surface1">
<path style=" stroke:none;fill-rule:evenodd;fill:rgb(98.039216%,98.431373%,98.039216%);fill-opacity:1;" d="M 4.375 5.65625 C 4.355469 5.675781 4.328125 5.6875 4.28125 5.6875 C 4.242188 5.6875 4.203125 5.695312 4.191406 5.710938 C 4.183594 5.722656 4.15625 5.734375 4.132812 5.742188 C 4.109375 5.746094 4.074219 5.765625 4.050781 5.78125 C 4.03125 5.800781 4.003906 5.8125 3.992188 5.8125 C 3.925781 5.816406 3.636719 6.15625 3.625 6.246094 C 3.617188 6.292969 3.601562 6.355469 3.589844 6.378906 C 3.558594 6.441406 3.558594 6.726562 3.589844 6.769531 C 3.605469 6.789062 3.613281 6.832031 3.617188 6.867188 C 3.617188 6.945312 3.628906 6.976562 3.695312 7.0625 C 3.722656 7.09375 3.746094 7.136719 3.753906 7.160156 C 3.757812 7.183594 3.789062 7.222656 3.816406 7.253906 C 3.847656 7.28125 3.871094 7.316406 3.871094 7.328125 C 3.871094 7.363281 4.144531 7.628906 4.21875 7.664062 C 4.253906 7.679688 4.304688 7.710938 4.328125 7.734375 C 4.351562 7.753906 4.382812 7.773438 4.398438 7.773438 C 4.410156 7.773438 4.480469 7.800781 4.550781 7.835938 C 4.621094 7.871094 4.691406 7.898438 4.707031 7.898438 C 4.722656 7.898438 4.773438 7.914062 4.816406 7.929688 C 4.917969 7.976562 5.640625 7.972656 5.691406 7.929688 C 5.707031 7.914062 5.746094 7.898438 5.78125 7.894531 C 5.816406 7.886719 5.859375 7.867188 5.886719 7.84375 C 5.910156 7.820312 5.953125 7.789062 5.984375 7.777344 C 6.105469 7.726562 6.300781 7.507812 6.316406 7.410156 C 6.320312 7.367188 6.34375 7.324219 6.378906 7.285156 L 6.433594 7.226562 L 6.429688 7.027344 C 6.425781 6.867188 6.417969 6.820312 6.398438 6.804688 C 6.351562 6.769531 6.320312 6.699219 6.320312 6.644531 C 6.320312 6.570312 6.289062 6.496094 6.226562 6.433594 C 6.199219 6.402344 6.175781 6.367188 6.175781 6.351562 C 6.175781 6.328125 5.851562 6.003906 5.824219 6.003906 C 5.816406 6.003906 5.777344 5.976562 5.730469 5.941406 C 5.6875 5.90625 5.644531 5.875 5.636719 5.875 C 5.628906 5.875 5.601562 5.863281 5.582031 5.847656 C 5.5625 5.832031 5.527344 5.8125 5.503906 5.804688 C 5.480469 5.800781 5.453125 5.785156 5.441406 5.773438 C 5.425781 5.761719 5.390625 5.75 5.363281 5.742188 C 5.332031 5.738281 5.289062 5.722656 5.265625 5.710938 C 5.242188 5.699219 5.195312 5.6875 5.160156 5.6875 C 5.125 5.6875 5.066406 5.671875 5.03125 5.65625 C 4.933594 5.609375 4.417969 5.609375 4.375 5.65625 M 5.066406 17.085938 C 5.042969 17.097656 4.980469 17.117188 4.921875 17.125 C 4.800781 17.140625 4.609375 17.195312 4.585938 17.21875 C 4.578125 17.226562 4.558594 17.234375 4.546875 17.234375 C 4.511719 17.234375 4.386719 17.296875 4.378906 17.316406 C 4.375 17.328125 4.335938 17.355469 4.292969 17.378906 C 4.25 17.398438 4.152344 17.480469 4.074219 17.558594 C 3.996094 17.632812 3.90625 17.707031 3.878906 17.71875 C 3.84375 17.734375 3.824219 17.753906 3.824219 17.769531 C 3.824219 17.785156 3.808594 17.816406 3.792969 17.839844 C 3.773438 17.863281 3.761719 17.890625 3.761719 17.902344 C 3.761719 17.914062 3.746094 17.941406 3.726562 17.960938 C 3.710938 17.980469 3.695312 18.007812 3.695312 18.023438 C 3.695312 18.035156 3.683594 18.0625 3.664062 18.078125 C 3.640625 18.105469 3.632812 18.136719 3.628906 18.234375 C 3.628906 18.328125 3.621094 18.367188 3.597656 18.394531 C 3.558594 18.445312 3.558594 18.554688 3.601562 18.628906 C 3.617188 18.664062 3.632812 18.71875 3.632812 18.757812 C 3.632812 18.816406 3.644531 18.84375 3.695312 18.90625 C 3.730469 18.953125 3.761719 19 3.761719 19.015625 C 3.761719 19.046875 3.957031 19.234375 4.003906 19.25 C 4.023438 19.257812 4.046875 19.269531 4.058594 19.277344 C 4.125 19.328125 4.242188 19.371094 4.335938 19.378906 C 4.394531 19.382812 4.472656 19.402344 4.511719 19.417969 C 4.597656 19.460938 4.960938 19.453125 5.054688 19.410156 C 5.085938 19.398438 5.144531 19.382812 5.183594 19.378906 C 5.222656 19.371094 5.316406 19.339844 5.390625 19.304688 C 5.46875 19.265625 5.554688 19.226562 5.585938 19.214844 C 5.613281 19.199219 5.65625 19.175781 5.671875 19.160156 C 5.691406 19.144531 5.734375 19.113281 5.773438 19.09375 C 5.808594 19.074219 5.890625 19.007812 5.957031 18.949219 C 6.019531 18.886719 6.09375 18.824219 6.125 18.808594 C 6.15625 18.792969 6.175781 18.769531 6.175781 18.75 C 6.175781 18.734375 6.191406 18.707031 6.207031 18.691406 C 6.226562 18.675781 6.242188 18.636719 6.25 18.589844 C 6.253906 18.550781 6.269531 18.507812 6.28125 18.496094 C 6.292969 18.488281 6.304688 18.46875 6.304688 18.457031 C 6.304688 18.441406 6.332031 18.398438 6.363281 18.359375 L 6.425781 18.285156 L 6.425781 18.050781 C 6.425781 17.8125 6.425781 17.8125 6.378906 17.765625 C 6.339844 17.722656 6.238281 17.546875 6.238281 17.515625 C 6.238281 17.496094 6.039062 17.3125 5.984375 17.285156 C 5.964844 17.273438 5.941406 17.257812 5.9375 17.253906 C 5.914062 17.226562 5.839844 17.191406 5.78125 17.179688 C 5.746094 17.175781 5.703125 17.160156 5.683594 17.148438 C 5.667969 17.136719 5.636719 17.125 5.617188 17.125 C 5.59375 17.125 5.542969 17.109375 5.507812 17.09375 C 5.417969 17.054688 5.136719 17.050781 5.066406 17.085938 "/>
<path style=" stroke:none;fill-rule:evenodd;fill:rgb(45.098039%,76.470588%,32.941176%);fill-opacity:1;" d="M 0 12.496094 L 0 24.992188 L 0.328125 24.992188 C 0.574219 24.992188 0.65625 24.988281 0.660156 24.972656 C 0.667969 24.957031 0.667969 24.957031 0.671875 24.972656 C 0.671875 24.996094 0.714844 25 0.722656 24.976562 C 0.726562 24.96875 0.800781 24.960938 0.894531 24.960938 C 1.035156 24.957031 1.0625 24.953125 1.078125 24.925781 C 1.09375 24.902344 1.117188 24.898438 1.257812 24.898438 C 1.421875 24.898438 1.476562 24.890625 1.464844 24.863281 C 1.449219 24.84375 1.480469 24.835938 1.628906 24.832031 C 1.757812 24.828125 1.777344 24.824219 1.777344 24.800781 C 1.777344 24.773438 1.792969 24.769531 1.902344 24.769531 C 1.972656 24.769531 2.03125 24.765625 2.03125 24.757812 C 2.023438 24.714844 2.035156 24.707031 2.152344 24.707031 C 2.265625 24.707031 2.277344 24.703125 2.273438 24.660156 C 2.273438 24.65625 2.285156 24.652344 2.300781 24.648438 C 2.316406 24.648438 2.371094 24.648438 2.429688 24.644531 C 2.507812 24.640625 2.527344 24.636719 2.527344 24.613281 C 2.527344 24.589844 2.542969 24.585938 2.605469 24.589844 C 2.6875 24.59375 2.710938 24.585938 2.710938 24.550781 C 2.710938 24.535156 2.738281 24.527344 2.828125 24.53125 C 2.9375 24.53125 2.945312 24.527344 2.9375 24.5 C 2.933594 24.472656 3.050781 24.453125 3.140625 24.46875 C 3.148438 24.46875 3.152344 24.457031 3.152344 24.4375 C 3.152344 24.410156 3.179688 24.398438 3.253906 24.40625 C 3.269531 24.410156 3.28125 24.398438 3.28125 24.378906 C 3.28125 24.347656 3.289062 24.34375 3.375 24.34375 C 3.460938 24.34375 3.472656 24.339844 3.472656 24.3125 C 3.472656 24.285156 3.484375 24.28125 3.550781 24.28125 C 3.617188 24.28125 3.632812 24.277344 3.640625 24.25 C 3.648438 24.226562 3.664062 24.21875 3.714844 24.21875 C 3.765625 24.21875 3.777344 24.210938 3.777344 24.1875 C 3.777344 24.160156 3.785156 24.15625 3.871094 24.15625 C 3.957031 24.15625 3.96875 24.152344 3.96875 24.125 C 3.96875 24.09375 4.015625 24.082031 4.140625 24.085938 C 4.152344 24.085938 4.160156 24.078125 4.15625 24.0625 C 4.152344 24.042969 4.167969 24.035156 4.210938 24.03125 C 4.25 24.027344 4.277344 24.015625 4.289062 23.996094 C 4.296875 23.976562 4.3125 23.96875 4.320312 23.972656 C 4.34375 23.988281 4.398438 23.964844 4.398438 23.941406 C 4.398438 23.917969 4.425781 23.914062 4.5 23.914062 C 4.515625 23.914062 4.527344 23.90625 4.527344 23.894531 C 4.527344 23.886719 4.535156 23.890625 4.542969 23.902344 C 4.558594 23.925781 4.578125 23.910156 4.597656 23.867188 C 4.597656 23.859375 4.625 23.851562 4.652344 23.851562 C 4.683594 23.847656 4.707031 23.835938 4.714844 23.820312 C 4.71875 23.800781 4.742188 23.792969 4.78125 23.789062 C 4.820312 23.785156 4.839844 23.777344 4.839844 23.761719 C 4.839844 23.742188 4.859375 23.734375 4.898438 23.730469 C 4.941406 23.726562 4.960938 23.71875 4.964844 23.695312 C 4.96875 23.679688 4.988281 23.664062 5.003906 23.664062 C 5.054688 23.664062 5.089844 23.648438 5.089844 23.625 C 5.089844 23.605469 5.136719 23.59375 5.195312 23.601562 C 5.207031 23.601562 5.214844 23.589844 5.214844 23.570312 C 5.214844 23.542969 5.226562 23.539062 5.28125 23.539062 C 5.316406 23.539062 5.34375 23.535156 5.34375 23.527344 C 5.335938 23.484375 5.347656 23.476562 5.40625 23.476562 C 5.457031 23.476562 5.46875 23.46875 5.460938 23.453125 C 5.453125 23.425781 5.46875 23.417969 5.535156 23.40625 C 5.554688 23.402344 5.582031 23.390625 5.59375 23.375 C 5.605469 23.359375 5.636719 23.34375 5.660156 23.34375 C 5.6875 23.34375 5.707031 23.335938 5.703125 23.328125 C 5.699219 23.324219 5.710938 23.308594 5.734375 23.300781 C 5.757812 23.292969 5.773438 23.277344 5.773438 23.269531 C 5.769531 23.257812 5.777344 23.246094 5.789062 23.242188 C 5.800781 23.238281 5.804688 23.246094 5.796875 23.261719 C 5.789062 23.28125 5.792969 23.289062 5.808594 23.28125 C 5.820312 23.277344 5.828125 23.261719 5.828125 23.246094 C 5.824219 23.226562 5.828125 23.21875 5.855469 23.226562 C 5.875 23.230469 5.886719 23.234375 5.882812 23.226562 C 5.867188 23.214844 5.914062 23.175781 5.949219 23.175781 C 6 23.175781 6.03125 23.160156 6.03125 23.132812 C 6.03125 23.113281 6.050781 23.105469 6.085938 23.109375 C 6.09375 23.113281 6.09375 23.105469 6.089844 23.101562 C 6.074219 23.074219 6.105469 23.050781 6.160156 23.046875 C 6.195312 23.042969 6.214844 23.03125 6.21875 23.015625 C 6.222656 23 6.242188 22.984375 6.257812 22.980469 C 6.273438 22.976562 6.289062 22.960938 6.289062 22.949219 C 6.289062 22.925781 6.335938 22.914062 6.386719 22.921875 C 6.394531 22.921875 6.398438 22.910156 6.398438 22.890625 C 6.398438 22.867188 6.410156 22.859375 6.457031 22.859375 C 6.5 22.859375 6.515625 22.851562 6.523438 22.828125 C 6.527344 22.808594 6.542969 22.796875 6.554688 22.796875 C 6.570312 22.796875 6.582031 22.78125 6.585938 22.765625 C 6.59375 22.738281 6.609375 22.734375 6.65625 22.734375 C 6.710938 22.734375 6.71875 22.726562 6.71875 22.703125 C 6.71875 22.679688 6.730469 22.667969 6.753906 22.667969 C 6.769531 22.667969 6.785156 22.660156 6.785156 22.644531 C 6.785156 22.632812 6.789062 22.621094 6.796875 22.621094 C 6.800781 22.621094 6.824219 22.617188 6.847656 22.617188 C 6.867188 22.613281 6.894531 22.601562 6.902344 22.585938 C 6.914062 22.570312 6.929688 22.558594 6.941406 22.558594 C 6.949219 22.558594 6.960938 22.546875 6.964844 22.527344 C 6.96875 22.507812 6.988281 22.496094 7.015625 22.496094 C 7.039062 22.496094 7.054688 22.488281 7.054688 22.480469 C 7.054688 22.46875 7.0625 22.46875 7.074219 22.472656 C 7.085938 22.480469 7.089844 22.476562 7.082031 22.460938 C 7.074219 22.433594 7.085938 22.425781 7.132812 22.433594 C 7.144531 22.433594 7.152344 22.429688 7.148438 22.421875 C 7.144531 22.386719 7.15625 22.371094 7.183594 22.371094 C 7.207031 22.371094 7.214844 22.359375 7.214844 22.339844 C 7.214844 22.316406 7.226562 22.304688 7.246094 22.304688 C 7.269531 22.304688 7.28125 22.296875 7.28125 22.273438 C 7.28125 22.253906 7.289062 22.242188 7.3125 22.242188 C 7.332031 22.242188 7.34375 22.234375 7.34375 22.210938 C 7.34375 22.183594 7.355469 22.179688 7.40625 22.179688 C 7.460938 22.179688 7.472656 22.175781 7.472656 22.148438 C 7.472656 22.128906 7.484375 22.117188 7.503906 22.117188 C 7.523438 22.117188 7.535156 22.105469 7.535156 22.085938 C 7.535156 22.070312 7.550781 22.054688 7.570312 22.046875 C 7.589844 22.042969 7.597656 22.03125 7.59375 22.023438 C 7.585938 22.015625 7.589844 22.003906 7.601562 22.003906 C 7.613281 22.003906 7.636719 22 7.65625 22 C 7.671875 22 7.695312 21.984375 7.703125 21.964844 C 7.710938 21.949219 7.730469 21.9375 7.746094 21.941406 C 7.765625 21.945312 7.777344 21.933594 7.777344 21.914062 C 7.777344 21.890625 7.785156 21.878906 7.808594 21.878906 C 7.828125 21.878906 7.839844 21.871094 7.839844 21.847656 C 7.839844 21.828125 7.851562 21.816406 7.871094 21.816406 C 7.894531 21.816406 7.902344 21.804688 7.902344 21.785156 C 7.902344 21.765625 7.914062 21.753906 7.9375 21.753906 C 7.957031 21.753906 7.96875 21.742188 7.96875 21.722656 C 7.96875 21.695312 7.980469 21.691406 8.023438 21.691406 C 8.066406 21.691406 8.078125 21.683594 8.078125 21.660156 C 8.078125 21.640625 8.09375 21.625 8.121094 21.621094 C 8.148438 21.613281 8.160156 21.601562 8.152344 21.585938 C 8.148438 21.570312 8.15625 21.5625 8.175781 21.5625 C 8.191406 21.5625 8.210938 21.554688 8.21875 21.546875 C 8.226562 21.535156 8.222656 21.53125 8.207031 21.539062 C 8.1875 21.550781 8.1875 21.550781 8.207031 21.527344 C 8.21875 21.511719 8.238281 21.5 8.253906 21.5 C 8.265625 21.5 8.273438 21.496094 8.265625 21.492188 C 8.253906 21.480469 8.296875 21.4375 8.320312 21.4375 C 8.328125 21.4375 8.335938 21.421875 8.335938 21.398438 C 8.335938 21.371094 8.34375 21.363281 8.359375 21.367188 C 8.375 21.375 8.386719 21.367188 8.394531 21.351562 C 8.398438 21.335938 8.429688 21.324219 8.464844 21.316406 C 8.5 21.3125 8.523438 21.300781 8.519531 21.292969 C 8.515625 21.285156 8.527344 21.273438 8.546875 21.261719 C 8.566406 21.25 8.585938 21.230469 8.585938 21.21875 C 8.585938 21.210938 8.589844 21.1875 8.589844 21.167969 C 8.589844 21.148438 8.601562 21.136719 8.625 21.136719 C 8.644531 21.136719 8.65625 21.125 8.65625 21.105469 C 8.65625 21.085938 8.667969 21.074219 8.6875 21.074219 C 8.710938 21.074219 8.71875 21.0625 8.71875 21.042969 C 8.71875 21.023438 8.730469 21.011719 8.753906 21.011719 C 8.769531 21.011719 8.78125 21.003906 8.78125 21 C 8.777344 20.964844 8.789062 20.949219 8.816406 20.949219 C 8.835938 20.949219 8.847656 20.9375 8.847656 20.917969 C 8.847656 20.898438 8.859375 20.882812 8.871094 20.882812 C 8.886719 20.882812 8.894531 20.875 8.894531 20.855469 C 8.890625 20.839844 8.898438 20.828125 8.921875 20.824219 C 8.941406 20.820312 8.964844 20.804688 8.96875 20.789062 C 8.972656 20.773438 8.988281 20.757812 9 20.757812 C 9.015625 20.757812 9.023438 20.742188 9.023438 20.726562 C 9.023438 20.707031 9.035156 20.695312 9.054688 20.695312 C 9.078125 20.695312 9.089844 20.683594 9.089844 20.664062 C 9.089844 20.648438 9.097656 20.636719 9.117188 20.636719 C 9.128906 20.640625 9.144531 20.632812 9.144531 20.625 C 9.144531 20.59375 9.171875 20.566406 9.195312 20.574219 C 9.207031 20.582031 9.214844 20.574219 9.214844 20.550781 C 9.214844 20.523438 9.230469 20.515625 9.265625 20.519531 C 9.273438 20.519531 9.277344 20.511719 9.277344 20.5 C 9.273438 20.421875 9.28125 20.394531 9.3125 20.394531 C 9.332031 20.394531 9.34375 20.382812 9.34375 20.363281 C 9.34375 20.34375 9.355469 20.332031 9.375 20.332031 C 9.398438 20.332031 9.40625 20.320312 9.40625 20.300781 C 9.40625 20.277344 9.417969 20.269531 9.441406 20.269531 C 9.457031 20.269531 9.472656 20.261719 9.46875 20.257812 C 9.464844 20.222656 9.476562 20.207031 9.507812 20.199219 C 9.527344 20.195312 9.535156 20.183594 9.53125 20.167969 C 9.523438 20.144531 9.53125 20.140625 9.5625 20.144531 C 9.582031 20.144531 9.597656 20.101562 9.589844 20.074219 C 9.582031 20.054688 9.589844 20.042969 9.613281 20.035156 C 9.632812 20.03125 9.648438 20.019531 9.648438 20.007812 C 9.648438 19.992188 9.65625 19.984375 9.664062 19.984375 C 9.675781 19.984375 9.675781 19.992188 9.671875 20 C 9.667969 20.007812 9.667969 20.015625 9.675781 20.015625 C 9.703125 20.015625 9.710938 19.996094 9.691406 19.972656 C 9.675781 19.953125 9.675781 19.949219 9.691406 19.957031 C 9.707031 19.964844 9.710938 19.960938 9.710938 19.9375 C 9.710938 19.914062 9.722656 19.90625 9.742188 19.90625 C 9.765625 19.90625 9.777344 19.894531 9.777344 19.875 C 9.777344 19.851562 9.785156 19.84375 9.808594 19.84375 C 9.835938 19.84375 9.839844 19.832031 9.839844 19.777344 C 9.839844 19.726562 9.84375 19.714844 9.871094 19.714844 C 9.894531 19.714844 9.902344 19.707031 9.902344 19.683594 C 9.902344 19.664062 9.914062 19.652344 9.9375 19.652344 C 9.957031 19.652344 9.96875 19.640625 9.96875 19.621094 C 9.96875 19.605469 9.980469 19.589844 10 19.585938 C 10.023438 19.578125 10.03125 19.5625 10.03125 19.519531 C 10.03125 19.472656 10.039062 19.460938 10.0625 19.460938 C 10.089844 19.460938 10.097656 19.453125 10.097656 19.402344 C 10.097656 19.351562 10.101562 19.339844 10.125 19.34375 C 10.140625 19.34375 10.152344 19.332031 10.152344 19.320312 C 10.152344 19.308594 10.167969 19.292969 10.1875 19.292969 C 10.210938 19.289062 10.222656 19.296875 10.222656 19.308594 C 10.222656 19.332031 10.226562 19.332031 10.324219 19.34375 C 10.363281 19.34375 10.394531 19.359375 10.402344 19.375 C 10.410156 19.390625 10.4375 19.398438 10.472656 19.398438 C 10.515625 19.398438 10.527344 19.40625 10.527344 19.429688 C 10.527344 19.453125 10.539062 19.460938 10.558594 19.460938 C 10.589844 19.460938 10.601562 19.480469 10.59375 19.515625 C 10.59375 19.523438 10.601562 19.527344 10.613281 19.523438 C 10.679688 19.515625 10.71875 19.527344 10.71875 19.558594 C 10.71875 19.574219 10.726562 19.589844 10.730469 19.585938 C 10.792969 19.578125 10.84375 19.59375 10.851562 19.621094 C 10.859375 19.644531 10.875 19.652344 10.917969 19.652344 C 10.964844 19.652344 10.976562 19.660156 10.976562 19.683594 C 10.976562 19.710938 10.988281 19.714844 11.039062 19.714844 C 11.085938 19.714844 11.101562 19.722656 11.09375 19.734375 C 11.082031 19.757812 11.117188 19.777344 11.171875 19.777344 C 11.199219 19.777344 11.214844 19.789062 11.21875 19.808594 C 11.226562 19.835938 11.242188 19.84375 11.285156 19.84375 C 11.332031 19.84375 11.34375 19.847656 11.34375 19.875 C 11.34375 19.898438 11.355469 19.90625 11.394531 19.90625 C 11.425781 19.90625 11.441406 19.910156 11.429688 19.917969 C 11.398438 19.9375 11.425781 19.960938 11.472656 19.960938 C 11.492188 19.960938 11.523438 19.972656 11.539062 19.988281 C 11.550781 20.003906 11.585938 20.023438 11.617188 20.03125 C 11.648438 20.035156 11.671875 20.050781 11.667969 20.0625 C 11.664062 20.070312 11.6875 20.078125 11.726562 20.078125 C 11.78125 20.078125 11.789062 20.082031 11.78125 20.109375 C 11.773438 20.136719 11.78125 20.140625 11.839844 20.140625 C 11.894531 20.140625 11.902344 20.148438 11.902344 20.171875 C 11.902344 20.191406 11.910156 20.203125 11.914062 20.203125 C 11.976562 20.195312 12.03125 20.207031 12.039062 20.238281 C 12.046875 20.261719 12.0625 20.269531 12.105469 20.269531 C 12.148438 20.269531 12.160156 20.273438 12.160156 20.300781 C 12.160156 20.320312 12.171875 20.332031 12.195312 20.335938 C 12.214844 20.335938 12.230469 20.351562 12.230469 20.363281 C 12.230469 20.375 12.246094 20.386719 12.269531 20.390625 C 12.289062 20.390625 12.3125 20.390625 12.324219 20.394531 C 12.339844 20.394531 12.351562 20.410156 12.355469 20.425781 C 12.363281 20.449219 12.378906 20.457031 12.421875 20.457031 C 12.464844 20.457031 12.476562 20.464844 12.46875 20.480469 C 12.460938 20.5 12.503906 20.527344 12.539062 20.519531 C 12.570312 20.515625 12.589844 20.523438 12.597656 20.554688 C 12.601562 20.570312 12.613281 20.585938 12.625 20.582031 C 12.683594 20.574219 12.71875 20.585938 12.726562 20.613281 C 12.734375 20.640625 12.75 20.644531 12.792969 20.640625 C 12.832031 20.636719 12.847656 20.640625 12.851562 20.664062 C 12.859375 20.6875 12.875 20.695312 12.917969 20.695312 C 12.964844 20.695312 12.976562 20.699219 12.976562 20.726562 C 12.976562 20.746094 12.988281 20.757812 13.011719 20.761719 C 13.03125 20.765625 13.046875 20.777344 13.046875 20.789062 C 13.046875 20.8125 13.054688 20.816406 13.128906 20.820312 C 13.15625 20.820312 13.164062 20.828125 13.160156 20.839844 C 13.144531 20.863281 13.179688 20.882812 13.234375 20.882812 C 13.261719 20.882812 13.28125 20.894531 13.289062 20.914062 C 13.292969 20.933594 13.3125 20.945312 13.332031 20.945312 C 13.40625 20.941406 13.421875 20.949219 13.414062 20.976562 C 13.40625 21 13.417969 21.003906 13.464844 21.007812 C 13.527344 21.011719 13.558594 21.035156 13.542969 21.0625 C 13.535156 21.070312 13.542969 21.074219 13.554688 21.074219 C 13.625 21.0625 13.664062 21.074219 13.664062 21.105469 C 13.664062 21.132812 13.675781 21.136719 13.71875 21.136719 C 13.753906 21.136719 13.777344 21.144531 13.777344 21.15625 C 13.777344 21.171875 13.78125 21.171875 13.789062 21.15625 C 13.800781 21.140625 13.808594 21.148438 13.824219 21.183594 C 13.839844 21.210938 13.855469 21.230469 13.867188 21.230469 C 13.878906 21.230469 13.886719 21.238281 13.886719 21.25 C 13.886719 21.257812 13.90625 21.261719 13.933594 21.257812 C 13.988281 21.25 14.007812 21.261719 13.984375 21.289062 C 13.96875 21.308594 13.980469 21.3125 14.09375 21.316406 C 14.144531 21.320312 14.160156 21.324219 14.160156 21.347656 C 14.160156 21.386719 15.039062 21.390625 15.078125 21.347656 C 15.097656 21.332031 15.132812 21.320312 15.183594 21.320312 C 15.234375 21.320312 15.265625 21.3125 15.265625 21.300781 C 15.265625 21.292969 15.28125 21.285156 15.304688 21.292969 C 15.335938 21.296875 15.34375 21.292969 15.335938 21.277344 C 15.328125 21.257812 15.335938 21.253906 15.375 21.261719 C 15.414062 21.265625 15.433594 21.253906 15.488281 21.203125 C 15.523438 21.167969 15.5625 21.136719 15.566406 21.136719 C 15.574219 21.136719 15.585938 21.125 15.589844 21.105469 C 15.597656 21.089844 15.613281 21.074219 15.625 21.066406 C 15.636719 21.0625 15.648438 21.046875 15.648438 21.035156 C 15.648438 21.023438 15.660156 21.011719 15.679688 21.011719 C 15.703125 21.011719 15.710938 21 15.710938 20.980469 C 15.710938 20.949219 15.730469 20.941406 15.765625 20.945312 C 15.773438 20.949219 15.777344 20.9375 15.773438 20.929688 C 15.765625 20.859375 15.777344 20.820312 15.808594 20.820312 C 15.835938 20.820312 15.839844 20.8125 15.839844 20.757812 C 15.839844 20.707031 15.84375 20.695312 15.871094 20.695312 C 15.898438 20.695312 15.902344 20.683594 15.902344 20.628906 C 15.902344 20.574219 15.90625 20.566406 15.9375 20.578125 C 15.96875 20.585938 15.96875 20.582031 15.96875 20.1875 C 15.964844 19.808594 15.964844 19.789062 15.933594 19.78125 C 15.910156 19.777344 15.902344 19.761719 15.902344 19.710938 C 15.902344 19.65625 15.898438 19.648438 15.871094 19.65625 C 15.84375 19.664062 15.839844 19.65625 15.839844 19.59375 C 15.839844 19.53125 15.835938 19.523438 15.808594 19.535156 C 15.777344 19.542969 15.761719 19.496094 15.773438 19.425781 C 15.773438 19.421875 15.761719 19.414062 15.746094 19.414062 C 15.730469 19.414062 15.710938 19.402344 15.707031 19.382812 C 15.703125 19.367188 15.6875 19.351562 15.671875 19.351562 C 15.660156 19.351562 15.648438 19.339844 15.648438 19.320312 C 15.648438 19.300781 15.636719 19.289062 15.617188 19.289062 C 15.597656 19.289062 15.589844 19.277344 15.589844 19.261719 C 15.589844 19.242188 15.582031 19.234375 15.5625 19.234375 C 15.546875 19.238281 15.535156 19.226562 15.535156 19.214844 C 15.535156 19.203125 15.527344 19.195312 15.519531 19.195312 C 15.507812 19.195312 15.507812 19.1875 15.511719 19.179688 C 15.515625 19.167969 15.515625 19.164062 15.507812 19.164062 C 15.496094 19.164062 15.488281 19.171875 15.484375 19.183594 C 15.476562 19.199219 15.472656 19.199219 15.472656 19.183594 C 15.472656 19.171875 15.457031 19.164062 15.441406 19.164062 C 15.425781 19.164062 15.40625 19.148438 15.402344 19.132812 C 15.398438 19.109375 15.386719 19.101562 15.371094 19.109375 C 15.355469 19.113281 15.339844 19.105469 15.328125 19.082031 C 15.316406 19.0625 15.300781 19.054688 15.285156 19.058594 C 15.273438 19.0625 15.265625 19.0625 15.273438 19.050781 C 15.277344 19.042969 15.273438 19.035156 15.261719 19.039062 C 15.199219 19.046875 15.152344 19.035156 15.148438 19.007812 C 15.144531 18.992188 15.128906 18.980469 15.113281 18.980469 C 15.09375 18.980469 15.082031 18.972656 15.085938 18.957031 C 15.089844 18.929688 15.058594 18.910156 15.003906 18.910156 C 14.976562 18.910156 14.960938 18.902344 14.960938 18.886719 C 14.960938 18.875 14.949219 18.863281 14.933594 18.859375 C 14.917969 18.859375 14.898438 18.855469 14.886719 18.855469 C 14.878906 18.851562 14.859375 18.851562 14.84375 18.847656 C 14.828125 18.847656 14.816406 18.832031 14.816406 18.8125 C 14.816406 18.789062 14.808594 18.78125 14.78125 18.789062 C 14.761719 18.792969 14.738281 18.785156 14.722656 18.765625 C 14.707031 18.75 14.675781 18.734375 14.644531 18.734375 C 14.601562 18.734375 14.59375 18.730469 14.59375 18.703125 C 14.59375 18.679688 14.582031 18.671875 14.53125 18.671875 C 14.480469 18.671875 14.464844 18.667969 14.460938 18.640625 C 14.453125 18.617188 14.4375 18.609375 14.394531 18.609375 C 14.347656 18.609375 14.335938 18.605469 14.335938 18.578125 C 14.335938 18.5625 14.332031 18.546875 14.324219 18.546875 C 14.269531 18.558594 14.226562 18.542969 14.21875 18.515625 C 14.214844 18.492188 14.199219 18.484375 14.152344 18.484375 C 14.105469 18.484375 14.097656 18.476562 14.097656 18.453125 C 14.097656 18.429688 14.085938 18.421875 14.066406 18.421875 C 14.050781 18.421875 14.03125 18.40625 14.027344 18.386719 C 14.019531 18.363281 14.003906 18.355469 13.960938 18.355469 C 13.914062 18.355469 13.902344 18.351562 13.902344 18.324219 C 13.902344 18.300781 13.894531 18.292969 13.839844 18.292969 C 13.78125 18.292969 13.769531 18.285156 13.773438 18.246094 C 13.773438 18.238281 13.765625 18.234375 13.753906 18.234375 C 13.679688 18.238281 13.652344 18.226562 13.644531 18.199219 C 13.636719 18.179688 13.628906 18.167969 13.621094 18.167969 C 13.578125 18.175781 13.535156 18.164062 13.535156 18.144531 C 13.535156 18.121094 13.464844 18.097656 13.4375 18.113281 C 13.429688 18.117188 13.417969 18.109375 13.414062 18.089844 C 13.40625 18.0625 13.390625 18.058594 13.34375 18.058594 C 13.289062 18.058594 13.28125 18.050781 13.28125 18.023438 C 13.28125 18 13.269531 17.992188 13.214844 17.992188 C 13.15625 17.992188 13.144531 17.984375 13.152344 17.941406 C 13.152344 17.933594 13.144531 17.933594 13.136719 17.9375 C 13.117188 17.949219 13.070312 17.902344 13.082031 17.882812 C 13.085938 17.875 13.0625 17.867188 13.03125 17.867188 C 12.988281 17.867188 12.972656 17.859375 12.964844 17.835938 C 12.957031 17.8125 12.941406 17.804688 12.902344 17.804688 C 12.863281 17.804688 12.847656 17.796875 12.84375 17.773438 C 12.835938 17.75 12.820312 17.742188 12.777344 17.742188 C 12.726562 17.742188 12.710938 17.730469 12.71875 17.691406 C 12.71875 17.683594 12.714844 17.679688 12.707031 17.679688 C 12.644531 17.6875 12.59375 17.675781 12.59375 17.648438 C 12.59375 17.625 12.582031 17.621094 12.542969 17.621094 C 12.488281 17.625 12.472656 17.617188 12.460938 17.578125 C 12.453125 17.5625 12.4375 17.550781 12.429688 17.550781 C 12.371094 17.558594 12.339844 17.546875 12.332031 17.519531 C 12.324219 17.5 12.316406 17.488281 12.304688 17.496094 C 12.296875 17.5 12.285156 17.488281 12.28125 17.472656 C 12.273438 17.449219 12.257812 17.441406 12.21875 17.441406 C 12.160156 17.441406 12.109375 17.402344 12.148438 17.386719 C 12.160156 17.382812 12.136719 17.378906 12.101562 17.378906 C 12.042969 17.378906 12.03125 17.371094 12.03125 17.34375 C 12.03125 17.324219 12.023438 17.3125 12.003906 17.316406 C 11.925781 17.324219 11.890625 17.3125 11.894531 17.285156 C 11.894531 17.265625 11.882812 17.257812 11.835938 17.253906 C 11.796875 17.25 11.777344 17.242188 11.769531 17.21875 C 11.765625 17.195312 11.75 17.1875 11.707031 17.1875 C 11.660156 17.1875 11.648438 17.183594 11.648438 17.15625 C 11.648438 17.132812 11.636719 17.128906 11.589844 17.128906 C 11.558594 17.128906 11.523438 17.117188 11.515625 17.109375 C 11.5 17.09375 11.5 17.089844 11.519531 17.101562 C 11.53125 17.109375 11.539062 17.105469 11.53125 17.089844 C 11.523438 17.070312 11.519531 17.066406 11.449219 17.0625 C 11.398438 17.0625 11.390625 17 11.441406 17 C 11.457031 17 11.472656 16.992188 11.46875 16.988281 C 11.457031 16.902344 11.476562 16.808594 11.503906 16.808594 C 11.53125 16.808594 11.535156 16.796875 11.535156 16.753906 C 11.535156 16.714844 11.542969 16.699219 11.570312 16.695312 C 11.59375 16.6875 11.601562 16.671875 11.597656 16.648438 C 11.59375 16.5625 11.601562 16.507812 11.621094 16.507812 C 11.636719 16.507812 11.648438 16.472656 11.65625 16.410156 C 11.667969 16.34375 11.679688 16.3125 11.691406 16.316406 C 11.707031 16.316406 11.710938 16.296875 11.710938 16.257812 C 11.710938 16.203125 11.71875 16.191406 11.742188 16.191406 C 11.773438 16.191406 11.777344 16.183594 11.777344 16.105469 C 11.777344 16.058594 11.78125 16.019531 11.792969 16.019531 C 11.800781 16.019531 11.8125 16.019531 11.820312 16.019531 C 11.828125 16.019531 11.835938 15.960938 11.839844 15.890625 C 11.847656 15.777344 11.851562 15.757812 11.875 15.761719 C 11.890625 15.765625 11.898438 15.757812 11.898438 15.746094 C 11.894531 15.625 11.90625 15.578125 11.9375 15.578125 C 11.964844 15.578125 11.96875 15.566406 11.96875 15.507812 C 11.960938 15.324219 11.964844 15.277344 12 15.277344 C 12.03125 15.277344 12.03125 15.265625 12.03125 15.148438 C 12.03125 15.035156 12.035156 15.023438 12.066406 15.023438 C 12.089844 15.023438 12.097656 15.015625 12.09375 14.972656 C 12.085938 14.824219 12.097656 14.722656 12.117188 14.722656 C 12.148438 14.722656 12.15625 14.6875 12.15625 14.605469 C 12.15625 14.425781 12.160156 14.410156 12.191406 14.402344 C 12.222656 14.394531 12.226562 14.382812 12.222656 14.214844 C 12.21875 13.9375 12.222656 13.917969 12.246094 13.917969 C 12.277344 13.917969 12.277344 13.933594 12.28125 13.601562 C 12.289062 12.957031 12.285156 12.984375 12.3125 12.984375 C 12.332031 12.984375 12.335938 12.921875 12.335938 12.496094 C 12.335938 12.070312 12.332031 12.007812 12.3125 12.007812 C 12.285156 12.007812 12.285156 11.972656 12.285156 11.410156 C 12.285156 11.175781 12.28125 11.152344 12.253906 11.144531 C 12.222656 11.132812 12.21875 11.128906 12.222656 10.824219 C 12.222656 10.660156 12.21875 10.648438 12.191406 10.648438 C 12.164062 10.648438 12.160156 10.636719 12.160156 10.515625 C 12.160156 10.378906 12.152344 10.324219 12.128906 10.339844 C 12.105469 10.355469 12.097656 10.324219 12.09375 10.183594 C 12.09375 10.0625 12.089844 10.042969 12.0625 10.035156 C 12.035156 10.027344 12.03125 10.011719 12.03125 9.871094 C 12.03125 9.726562 12.03125 9.714844 12 9.714844 C 11.972656 9.714844 11.96875 9.707031 11.96875 9.605469 C 11.96875 9.503906 11.964844 9.492188 11.9375 9.484375 C 11.910156 9.476562 11.902344 9.460938 11.902344 9.382812 C 11.902344 9.300781 11.898438 9.289062 11.871094 9.289062 C 11.84375 9.289062 11.839844 9.277344 11.839844 9.164062 C 11.839844 9.046875 11.835938 9.035156 11.808594 9.035156 C 11.777344 9.035156 11.761719 8.953125 11.773438 8.875 C 11.773438 8.867188 11.761719 8.863281 11.742188 8.863281 C 11.714844 8.863281 11.710938 8.851562 11.710938 8.769531 C 11.710938 8.695312 11.707031 8.671875 11.6875 8.671875 C 11.671875 8.671875 11.664062 8.644531 11.65625 8.578125 C 11.648438 8.511719 11.636719 8.484375 11.621094 8.484375 C 11.609375 8.484375 11.597656 8.472656 11.597656 8.457031 C 11.597656 8.441406 11.59375 8.414062 11.59375 8.398438 C 11.59375 8.378906 11.582031 8.363281 11.566406 8.363281 C 11.550781 8.363281 11.542969 8.34375 11.539062 8.273438 C 11.535156 8.195312 11.53125 8.183594 11.503906 8.183594 C 11.472656 8.183594 11.46875 8.171875 11.46875 8.09375 C 11.46875 8.074219 11.464844 8.058594 11.457031 8.058594 C 11.421875 8.0625 11.40625 8.054688 11.40625 8.023438 C 11.40625 8 11.417969 7.992188 11.464844 7.992188 C 11.507812 7.992188 11.523438 7.984375 11.53125 7.960938 C 11.539062 7.9375 11.554688 7.929688 11.585938 7.929688 C 11.621094 7.929688 11.636719 7.921875 11.644531 7.898438 C 11.652344 7.871094 11.691406 7.859375 11.757812 7.867188 C 11.765625 7.867188 11.777344 7.855469 11.777344 7.835938 C 11.777344 7.808594 11.828125 7.792969 11.890625 7.800781 C 11.898438 7.804688 11.902344 7.789062 11.902344 7.773438 C 11.902344 7.742188 11.957031 7.726562 12.023438 7.738281 C 12.03125 7.742188 12.03125 7.726562 12.027344 7.710938 C 12.023438 7.6875 12.027344 7.679688 12.054688 7.675781 C 12.074219 7.671875 12.085938 7.660156 12.085938 7.640625 C 12.085938 7.621094 12.097656 7.613281 12.152344 7.613281 C 12.207031 7.613281 12.21875 7.609375 12.21875 7.585938 C 12.214844 7.566406 12.230469 7.558594 12.277344 7.554688 C 12.320312 7.550781 12.335938 7.542969 12.335938 7.519531 C 12.335938 7.496094 12.34375 7.492188 12.390625 7.496094 C 12.433594 7.503906 12.445312 7.496094 12.453125 7.476562 C 12.457031 7.453125 12.480469 7.441406 12.527344 7.433594 C 12.570312 7.429688 12.59375 7.417969 12.59375 7.402344 C 12.59375 7.378906 12.617188 7.371094 12.675781 7.375 C 12.695312 7.378906 12.710938 7.367188 12.714844 7.347656 C 12.722656 7.316406 12.734375 7.3125 12.808594 7.308594 C 12.828125 7.308594 12.839844 7.296875 12.835938 7.277344 C 12.835938 7.257812 12.847656 7.25 12.898438 7.25 C 12.949219 7.25 12.960938 7.246094 12.960938 7.21875 C 12.960938 7.195312 12.96875 7.1875 13 7.1875 C 13.019531 7.1875 13.042969 7.179688 13.050781 7.171875 C 13.058594 7.160156 13.0625 7.160156 13.074219 7.175781 C 13.082031 7.191406 13.085938 7.1875 13.085938 7.160156 C 13.089844 7.128906 13.097656 7.125 13.144531 7.125 C 13.191406 7.125 13.203125 7.117188 13.210938 7.09375 C 13.214844 7.074219 13.234375 7.0625 13.25 7.0625 C 13.269531 7.0625 13.277344 7.050781 13.273438 7.03125 C 13.265625 7.003906 13.273438 7 13.335938 7 C 13.375 7 13.40625 6.992188 13.40625 6.988281 C 13.398438 6.945312 13.414062 6.933594 13.472656 6.933594 C 13.515625 6.933594 13.535156 6.929688 13.535156 6.914062 C 13.535156 6.890625 13.570312 6.871094 13.617188 6.871094 C 13.632812 6.871094 13.648438 6.863281 13.648438 6.847656 C 13.648438 6.828125 13.683594 6.816406 13.738281 6.824219 C 13.75 6.824219 13.761719 6.8125 13.769531 6.792969 C 13.773438 6.777344 13.792969 6.761719 13.808594 6.761719 C 13.832031 6.761719 13.839844 6.753906 13.835938 6.734375 C 13.832031 6.710938 13.84375 6.703125 13.886719 6.699219 C 13.917969 6.699219 13.953125 6.6875 13.960938 6.679688 C 13.972656 6.671875 13.984375 6.675781 13.996094 6.683594 C 14.019531 6.707031 14.039062 6.671875 14.015625 6.644531 C 14.003906 6.628906 14.007812 6.625 14.039062 6.632812 C 14.074219 6.636719 14.082031 6.632812 14.089844 6.605469 C 14.097656 6.578125 14.113281 6.570312 14.15625 6.570312 C 14.199219 6.570312 14.214844 6.5625 14.21875 6.539062 C 14.226562 6.519531 14.242188 6.507812 14.273438 6.507812 C 14.304688 6.507812 14.320312 6.5 14.324219 6.476562 C 14.332031 6.453125 14.347656 6.445312 14.390625 6.445312 C 14.4375 6.445312 14.453125 6.4375 14.460938 6.414062 C 14.46875 6.386719 14.519531 6.371094 14.578125 6.378906 C 14.585938 6.382812 14.59375 6.367188 14.59375 6.351562 C 14.59375 6.332031 14.601562 6.320312 14.613281 6.320312 C 14.628906 6.320312 14.640625 6.304688 14.648438 6.289062 C 14.65625 6.261719 14.671875 6.257812 14.722656 6.257812 C 14.773438 6.257812 14.785156 6.25 14.785156 6.222656 C 14.785156 6.199219 14.792969 6.195312 14.824219 6.199219 C 14.871094 6.207031 14.914062 6.195312 14.902344 6.175781 C 14.890625 6.15625 14.921875 6.144531 14.976562 6.140625 C 15.011719 6.140625 15.023438 6.132812 15.023438 6.113281 C 15.023438 6.085938 15.035156 6.082031 15.089844 6.082031 C 15.140625 6.082031 15.152344 6.078125 15.152344 6.050781 C 15.152344 6.023438 15.207031 6.007812 15.269531 6.015625 C 15.277344 6.019531 15.277344 6.015625 15.273438 6.007812 C 15.257812 5.980469 15.292969 5.953125 15.347656 5.949219 C 15.378906 5.949219 15.40625 5.945312 15.40625 5.941406 C 15.402344 5.90625 15.414062 5.890625 15.4375 5.890625 C 15.457031 5.890625 15.46875 5.882812 15.464844 5.863281 C 15.464844 5.84375 15.476562 5.835938 15.507812 5.832031 C 15.554688 5.828125 15.648438 5.753906 15.648438 5.722656 C 15.648438 5.714844 15.664062 5.703125 15.679688 5.699219 C 15.703125 5.691406 15.710938 5.675781 15.710938 5.632812 C 15.710938 5.589844 15.71875 5.578125 15.742188 5.578125 C 15.757812 5.578125 15.777344 5.5625 15.78125 5.542969 C 15.785156 5.527344 15.800781 5.515625 15.8125 5.515625 C 15.824219 5.519531 15.832031 5.5 15.835938 5.460938 C 15.839844 5.410156 15.855469 5.394531 15.890625 5.402344 C 15.898438 5.402344 15.902344 5.375 15.902344 5.339844 C 15.902344 5.285156 15.910156 5.277344 15.9375 5.277344 C 15.96875 5.277344 15.96875 5.265625 15.96875 4.871094 C 15.96875 4.652344 15.960938 4.472656 15.957031 4.476562 C 15.929688 4.492188 15.90625 4.460938 15.898438 4.40625 C 15.894531 4.367188 15.886719 4.351562 15.867188 4.355469 C 15.84375 4.359375 15.828125 4.304688 15.839844 4.246094 C 15.839844 4.238281 15.835938 4.234375 15.828125 4.234375 C 15.792969 4.242188 15.777344 4.230469 15.777344 4.203125 C 15.777344 4.179688 15.765625 4.171875 15.742188 4.171875 C 15.71875 4.171875 15.710938 4.160156 15.710938 4.109375 C 15.710938 4.054688 15.707031 4.042969 15.679688 4.042969 C 15.660156 4.042969 15.648438 4.035156 15.648438 4.011719 C 15.648438 3.992188 15.636719 3.980469 15.617188 3.980469 C 15.597656 3.980469 15.589844 3.972656 15.59375 3.960938 C 15.597656 3.949219 15.582031 3.929688 15.558594 3.921875 C 15.539062 3.910156 15.523438 3.894531 15.523438 3.882812 C 15.527344 3.863281 15.519531 3.859375 15.449219 3.855469 C 15.425781 3.855469 15.40625 3.84375 15.398438 3.824219 C 15.394531 3.804688 15.378906 3.792969 15.367188 3.792969 C 15.355469 3.792969 15.34375 3.777344 15.339844 3.761719 C 15.332031 3.738281 15.316406 3.734375 15.242188 3.734375 C 15.167969 3.734375 15.152344 3.730469 15.152344 3.710938 C 15.152344 3.695312 15.136719 3.679688 15.109375 3.675781 C 15.035156 3.660156 14.207031 3.667969 14.207031 3.683594 C 14.207031 3.691406 14.195312 3.691406 14.183594 3.6875 C 14.167969 3.679688 14.160156 3.6875 14.160156 3.703125 C 14.160156 3.726562 14.101562 3.738281 14.011719 3.730469 C 14 3.726562 13.980469 3.742188 13.976562 3.757812 C 13.96875 3.777344 13.957031 3.792969 13.945312 3.792969 C 13.933594 3.792969 13.917969 3.804688 13.910156 3.824219 C 13.90625 3.847656 13.886719 3.855469 13.84375 3.855469 C 13.800781 3.855469 13.785156 3.863281 13.78125 3.886719 C 13.773438 3.910156 13.757812 3.917969 13.71875 3.917969 C 13.6875 3.917969 13.664062 3.921875 13.664062 3.929688 C 13.671875 3.96875 13.660156 3.980469 13.605469 3.980469 C 13.5625 3.980469 13.546875 3.988281 13.539062 4.011719 C 13.535156 4.035156 13.519531 4.042969 13.484375 4.042969 C 13.457031 4.042969 13.433594 4.054688 13.421875 4.074219 C 13.40625 4.097656 13.382812 4.109375 13.347656 4.109375 C 13.3125 4.109375 13.296875 4.117188 13.289062 4.140625 C 13.28125 4.15625 13.265625 4.171875 13.253906 4.171875 C 13.238281 4.171875 13.226562 4.183594 13.21875 4.203125 C 13.214844 4.226562 13.199219 4.234375 13.152344 4.234375 C 13.105469 4.234375 13.089844 4.242188 13.082031 4.265625 C 13.078125 4.285156 13.0625 4.296875 13.035156 4.296875 C 13.011719 4.296875 12.984375 4.308594 12.976562 4.328125 C 12.964844 4.351562 12.949219 4.355469 12.910156 4.351562 C 12.871094 4.34375 12.859375 4.347656 12.851562 4.375 C 12.847656 4.398438 12.832031 4.40625 12.789062 4.40625 C 12.746094 4.40625 12.730469 4.414062 12.726562 4.4375 C 12.71875 4.457031 12.707031 4.472656 12.695312 4.472656 C 12.683594 4.472656 12.664062 4.476562 12.65625 4.480469 C 12.648438 4.480469 12.628906 4.484375 12.617188 4.484375 C 12.601562 4.484375 12.59375 4.496094 12.59375 4.511719 C 12.59375 4.527344 12.578125 4.535156 12.546875 4.535156 C 12.515625 4.535156 12.492188 4.546875 12.476562 4.570312 C 12.457031 4.59375 12.4375 4.601562 12.402344 4.601562 C 12.359375 4.597656 12.351562 4.601562 12.351562 4.628906 C 12.351562 4.65625 12.339844 4.660156 12.289062 4.660156 C 12.253906 4.660156 12.226562 4.664062 12.226562 4.671875 C 12.230469 4.707031 12.222656 4.722656 12.199219 4.722656 C 12.183594 4.722656 12.167969 4.738281 12.164062 4.753906 C 12.15625 4.785156 12.128906 4.792969 12.058594 4.789062 C 12.042969 4.785156 12.03125 4.796875 12.03125 4.816406 C 12.03125 4.84375 12.023438 4.851562 11.96875 4.851562 C 11.925781 4.851562 11.894531 4.859375 11.871094 4.882812 C 11.855469 4.898438 11.824219 4.914062 11.808594 4.914062 C 11.789062 4.914062 11.777344 4.921875 11.777344 4.941406 C 11.777344 4.964844 11.769531 4.972656 11.742188 4.964844 C 11.71875 4.957031 11.695312 4.96875 11.667969 5 C 11.648438 5.019531 11.625 5.035156 11.613281 5.03125 C 11.589844 5.015625 11.535156 5.039062 11.535156 5.0625 C 11.535156 5.085938 11.523438 5.089844 11.449219 5.09375 C 11.429688 5.09375 11.414062 5.101562 11.414062 5.109375 C 11.414062 5.144531 11.390625 5.160156 11.34375 5.15625 C 11.304688 5.15625 11.289062 5.164062 11.28125 5.191406 C 11.269531 5.214844 11.253906 5.222656 11.21875 5.222656 C 11.1875 5.21875 11.164062 5.226562 11.160156 5.242188 C 11.152344 5.257812 11.160156 5.261719 11.183594 5.257812 C 11.203125 5.25 11.210938 5.253906 11.207031 5.261719 C 11.203125 5.269531 11.164062 5.277344 11.117188 5.277344 C 11.050781 5.277344 11.039062 5.28125 11.039062 5.308594 C 11.039062 5.328125 11.03125 5.339844 11.007812 5.339844 C 10.988281 5.339844 10.976562 5.351562 10.976562 5.371094 C 10.976562 5.398438 10.964844 5.402344 10.917969 5.402344 C 10.875 5.402344 10.859375 5.410156 10.851562 5.433594 C 10.84375 5.460938 10.792969 5.476562 10.730469 5.46875 C 10.726562 5.46875 10.71875 5.480469 10.71875 5.496094 C 10.71875 5.527344 10.667969 5.542969 10.605469 5.53125 C 10.597656 5.53125 10.59375 5.535156 10.59375 5.542969 C 10.601562 5.578125 10.585938 5.589844 10.53125 5.59375 C 10.492188 5.597656 10.472656 5.609375 10.472656 5.625 C 10.472656 5.636719 10.464844 5.648438 10.453125 5.648438 C 10.441406 5.652344 10.425781 5.652344 10.414062 5.652344 C 10.40625 5.65625 10.398438 5.667969 10.398438 5.679688 C 10.398438 5.699219 10.363281 5.710938 10.308594 5.703125 C 10.296875 5.703125 10.289062 5.714844 10.289062 5.734375 C 10.289062 5.761719 10.277344 5.765625 10.222656 5.765625 C 10.164062 5.765625 10.152344 5.753906 10.160156 5.714844 C 10.160156 5.707031 10.152344 5.691406 10.144531 5.679688 C 10.136719 5.667969 10.132812 5.65625 10.140625 5.648438 C 10.148438 5.640625 10.140625 5.640625 10.125 5.644531 C 10.097656 5.652344 10.089844 5.640625 10.09375 5.605469 C 10.09375 5.597656 10.082031 5.59375 10.0625 5.59375 C 10.039062 5.59375 10.03125 5.582031 10.03125 5.527344 C 10.03125 5.476562 10.027344 5.464844 10 5.464844 C 9.980469 5.464844 9.96875 5.457031 9.96875 5.433594 C 9.96875 5.414062 9.957031 5.402344 9.9375 5.402344 C 9.910156 5.402344 9.902344 5.390625 9.902344 5.339844 C 9.902344 5.285156 9.898438 5.277344 9.871094 5.277344 C 9.855469 5.277344 9.839844 5.265625 9.839844 5.253906 C 9.839844 5.242188 9.824219 5.226562 9.808594 5.222656 C 9.789062 5.214844 9.773438 5.195312 9.773438 5.171875 C 9.769531 5.113281 9.769531 5.105469 9.757812 5.09375 C 9.75 5.085938 9.742188 5.089844 9.742188 5.105469 C 9.742188 5.117188 9.730469 5.109375 9.714844 5.085938 C 9.699219 5.066406 9.691406 5.042969 9.691406 5.035156 C 9.695312 5.03125 9.683594 5.027344 9.671875 5.035156 C 9.65625 5.039062 9.648438 5.03125 9.648438 5.007812 C 9.648438 4.980469 9.632812 4.96875 9.597656 4.972656 C 9.589844 4.976562 9.589844 4.964844 9.59375 4.953125 C 9.601562 4.933594 9.59375 4.925781 9.570312 4.917969 C 9.550781 4.914062 9.535156 4.898438 9.535156 4.878906 C 9.535156 4.859375 9.523438 4.851562 9.503906 4.851562 C 9.480469 4.851562 9.472656 4.839844 9.472656 4.800781 C 9.472656 4.773438 9.460938 4.75 9.441406 4.734375 C 9.421875 4.726562 9.40625 4.703125 9.40625 4.6875 C 9.40625 4.671875 9.402344 4.660156 9.394531 4.664062 C 9.359375 4.667969 9.34375 4.65625 9.34375 4.628906 C 9.34375 4.609375 9.332031 4.597656 9.308594 4.59375 C 9.28125 4.589844 9.273438 4.582031 9.277344 4.558594 C 9.28125 4.535156 9.273438 4.53125 9.25 4.539062 C 9.222656 4.546875 9.214844 4.539062 9.214844 4.507812 C 9.214844 4.488281 9.210938 4.472656 9.203125 4.472656 C 9.167969 4.476562 9.152344 4.46875 9.152344 4.4375 C 9.152344 4.417969 9.140625 4.40625 9.121094 4.40625 C 9.105469 4.40625 9.089844 4.394531 9.082031 4.375 C 9.078125 4.351562 9.066406 4.34375 9.050781 4.351562 C 9.035156 4.355469 9.023438 4.351562 9.023438 4.335938 C 9.023438 4.324219 9.007812 4.304688 8.992188 4.296875 C 8.972656 4.289062 8.964844 4.273438 8.96875 4.265625 C 8.988281 4.234375 8.960938 4.171875 8.929688 4.171875 C 8.910156 4.171875 8.902344 4.160156 8.902344 4.144531 C 8.902344 4.125 8.890625 4.113281 8.871094 4.109375 C 8.84375 4.105469 8.835938 4.097656 8.84375 4.074219 C 8.851562 4.050781 8.84375 4.042969 8.816406 4.042969 C 8.792969 4.042969 8.785156 4.035156 8.785156 4.011719 C 8.785156 3.992188 8.777344 3.984375 8.769531 3.988281 C 8.75 4 8.703125 3.949219 8.714844 3.929688 C 8.71875 3.921875 8.71875 3.917969 8.707031 3.921875 C 8.6875 3.9375 8.636719 3.890625 8.648438 3.871094 C 8.652344 3.859375 8.644531 3.855469 8.625 3.855469 C 8.609375 3.855469 8.589844 3.839844 8.582031 3.824219 C 8.578125 3.804688 8.566406 3.796875 8.558594 3.800781 C 8.550781 3.804688 8.535156 3.792969 8.527344 3.769531 C 8.515625 3.746094 8.5 3.734375 8.484375 3.738281 C 8.472656 3.746094 8.464844 3.734375 8.464844 3.714844 C 8.464844 3.695312 8.457031 3.683594 8.453125 3.683594 C 8.410156 3.691406 8.382812 3.679688 8.390625 3.65625 C 8.394531 3.644531 8.390625 3.628906 8.382812 3.625 C 8.375 3.621094 8.359375 3.632812 8.351562 3.652344 C 8.339844 3.6875 8.324219 3.621094 8.335938 3.566406 C 8.335938 3.558594 8.328125 3.554688 8.320312 3.5625 C 8.300781 3.574219 8.253906 3.523438 8.265625 3.503906 C 8.269531 3.496094 8.246094 3.492188 8.210938 3.492188 C 8.160156 3.492188 8.148438 3.484375 8.152344 3.464844 C 8.152344 3.445312 8.140625 3.433594 8.121094 3.425781 C 8.101562 3.421875 8.089844 3.40625 8.09375 3.390625 C 8.097656 3.375 8.085938 3.363281 8.066406 3.363281 C 8.042969 3.363281 8.03125 3.355469 8.03125 3.332031 C 8.03125 3.316406 8.027344 3.300781 8.019531 3.304688 C 7.984375 3.308594 7.96875 3.296875 7.96875 3.269531 C 7.96875 3.242188 7.957031 3.238281 7.902344 3.238281 C 7.84375 3.238281 7.832031 3.226562 7.839844 3.1875 C 7.839844 3.179688 7.824219 3.175781 7.808594 3.175781 C 7.785156 3.175781 7.777344 3.164062 7.777344 3.144531 C 7.777344 3.125 7.769531 3.113281 7.765625 3.113281 C 7.730469 3.121094 7.710938 3.109375 7.710938 3.082031 C 7.710938 3.0625 7.707031 3.050781 7.699219 3.050781 C 7.667969 3.054688 7.648438 3.046875 7.648438 3.027344 C 7.648438 3.015625 7.632812 3 7.617188 2.992188 C 7.597656 2.988281 7.589844 2.976562 7.59375 2.96875 C 7.597656 2.960938 7.589844 2.949219 7.570312 2.945312 C 7.550781 2.9375 7.535156 2.925781 7.535156 2.914062 C 7.535156 2.890625 7.5 2.875 7.449219 2.875 C 7.425781 2.875 7.410156 2.863281 7.402344 2.84375 C 7.398438 2.828125 7.382812 2.8125 7.371094 2.8125 C 7.359375 2.8125 7.34375 2.796875 7.339844 2.777344 C 7.335938 2.761719 7.324219 2.75 7.316406 2.753906 C 7.304688 2.761719 7.289062 2.746094 7.273438 2.726562 C 7.257812 2.703125 7.238281 2.6875 7.222656 2.6875 C 7.210938 2.6875 7.191406 2.671875 7.179688 2.652344 C 7.167969 2.636719 7.144531 2.621094 7.125 2.621094 C 7.097656 2.621094 7.089844 2.613281 7.089844 2.589844 C 7.089844 2.574219 7.078125 2.558594 7.0625 2.558594 C 7.046875 2.558594 7.042969 2.566406 7.050781 2.578125 C 7.054688 2.589844 7.054688 2.589844 7.042969 2.585938 C 7.03125 2.578125 7.023438 2.558594 7.023438 2.539062 C 7.023438 2.507812 7.015625 2.503906 6.980469 2.503906 C 6.933594 2.507812 6.890625 2.484375 6.90625 2.464844 C 6.910156 2.457031 6.902344 2.445312 6.894531 2.4375 C 6.882812 2.429688 6.878906 2.433594 6.886719 2.449219 C 6.898438 2.46875 6.898438 2.46875 6.875 2.449219 C 6.859375 2.4375 6.847656 2.417969 6.847656 2.40625 C 6.847656 2.382812 6.78125 2.363281 6.746094 2.375 C 6.730469 2.378906 6.71875 2.371094 6.714844 2.351562 C 6.710938 2.335938 6.695312 2.324219 6.679688 2.324219 C 6.667969 2.324219 6.65625 2.3125 6.65625 2.300781 C 6.65625 2.273438 6.621094 2.257812 6.566406 2.257812 C 6.539062 2.257812 6.527344 2.25 6.527344 2.226562 C 6.527344 2.207031 6.519531 2.199219 6.511719 2.203125 C 6.492188 2.214844 6.445312 2.167969 6.457031 2.148438 C 6.460938 2.140625 6.4375 2.132812 6.402344 2.132812 C 6.339844 2.132812 6.328125 2.121094 6.335938 2.082031 C 6.335938 2.074219 6.3125 2.070312 6.28125 2.070312 C 6.242188 2.070312 6.222656 2.0625 6.222656 2.046875 C 6.222656 2.03125 6.207031 2.015625 6.1875 2.007812 C 6.164062 2 6.144531 1.980469 6.136719 1.96875 C 6.132812 1.953125 6.121094 1.941406 6.109375 1.945312 C 6.054688 1.949219 6.03125 1.941406 6.03125 1.910156 C 6.03125 1.894531 6.027344 1.878906 6.019531 1.882812 C 5.988281 1.886719 5.96875 1.878906 5.960938 1.847656 C 5.953125 1.832031 5.945312 1.816406 5.9375 1.820312 C 5.878906 1.828125 5.839844 1.8125 5.839844 1.785156 C 5.839844 1.765625 5.832031 1.757812 5.824219 1.761719 C 5.800781 1.777344 5.757812 1.738281 5.769531 1.71875 C 5.777344 1.707031 5.769531 1.703125 5.753906 1.710938 C 5.738281 1.714844 5.726562 1.714844 5.726562 1.707031 C 5.726562 1.695312 5.710938 1.691406 5.6875 1.695312 C 5.664062 1.703125 5.644531 1.695312 5.636719 1.679688 C 5.628906 1.667969 5.601562 1.652344 5.578125 1.644531 C 5.554688 1.640625 5.535156 1.628906 5.539062 1.621094 C 5.539062 1.601562 5.492188 1.582031 5.4375 1.582031 C 5.40625 1.582031 5.394531 1.570312 5.398438 1.550781 C 5.398438 1.53125 5.386719 1.523438 5.339844 1.519531 C 5.292969 1.515625 5.28125 1.507812 5.28125 1.484375 C 5.28125 1.457031 5.269531 1.453125 5.21875 1.453125 C 5.167969 1.453125 5.152344 1.445312 5.148438 1.421875 C 5.140625 1.398438 5.125 1.390625 5.082031 1.390625 C 5.035156 1.390625 5.023438 1.382812 5.023438 1.359375 C 5.023438 1.332031 5.011719 1.328125 4.96875 1.328125 C 4.929688 1.328125 4.910156 1.320312 4.90625 1.296875 C 4.898438 1.277344 4.878906 1.269531 4.847656 1.269531 C 4.820312 1.269531 4.792969 1.261719 4.785156 1.25 C 4.773438 1.234375 4.769531 1.234375 4.765625 1.25 C 4.761719 1.261719 4.746094 1.265625 4.726562 1.257812 C 4.695312 1.246094 4.695312 1.246094 4.726562 1.222656 C 4.75 1.207031 4.753906 1.199219 4.734375 1.203125 C 4.675781 1.210938 4.640625 1.199219 4.648438 1.175781 C 4.660156 1.152344 4.636719 1.144531 4.574219 1.152344 C 4.558594 1.152344 4.539062 1.140625 4.527344 1.121094 C 4.519531 1.105469 4.503906 1.09375 4.492188 1.097656 C 4.480469 1.105469 4.484375 1.113281 4.5 1.125 C 4.511719 1.132812 4.511719 1.136719 4.503906 1.136719 C 4.492188 1.136719 4.472656 1.125 4.460938 1.109375 C 4.441406 1.089844 4.441406 1.085938 4.460938 1.097656 C 4.476562 1.105469 4.480469 1.105469 4.472656 1.09375 C 4.46875 1.082031 4.445312 1.074219 4.425781 1.074219 C 4.402344 1.074219 4.378906 1.066406 4.375 1.054688 C 4.367188 1.042969 4.371094 1.042969 4.382812 1.050781 C 4.390625 1.054688 4.398438 1.050781 4.398438 1.042969 C 4.398438 1.03125 4.386719 1.027344 4.363281 1.03125 C 4.34375 1.039062 4.320312 1.035156 4.308594 1.023438 C 4.296875 1.015625 4.273438 1.011719 4.257812 1.015625 C 4.238281 1.019531 4.222656 1.015625 4.222656 1.003906 C 4.222656 0.992188 4.195312 0.976562 4.15625 0.96875 C 4.105469 0.957031 4.089844 0.949219 4.09375 0.925781 C 4.097656 0.90625 4.082031 0.902344 4 0.902344 C 3.914062 0.902344 3.902344 0.898438 3.902344 0.867188 C 3.902344 0.847656 3.894531 0.835938 3.875 0.839844 C 3.773438 0.847656 3.710938 0.835938 3.710938 0.804688 C 3.710938 0.78125 3.699219 0.773438 3.621094 0.769531 C 3.542969 0.765625 3.527344 0.761719 3.53125 0.738281 C 3.53125 0.714844 3.519531 0.710938 3.46875 0.710938 C 3.417969 0.710938 3.40625 0.707031 3.40625 0.675781 C 3.40625 0.648438 3.402344 0.644531 3.394531 0.660156 C 3.382812 0.675781 3.375 0.675781 3.367188 0.664062 C 3.363281 0.65625 3.324219 0.648438 3.28125 0.648438 C 3.207031 0.648438 3.203125 0.644531 3.210938 0.613281 C 3.214844 0.59375 3.210938 0.585938 3.207031 0.597656 C 3.199219 0.613281 3.191406 0.613281 3.171875 0.597656 C 3.148438 0.578125 3.148438 0.582031 3.160156 0.601562 C 3.171875 0.621094 3.167969 0.621094 3.152344 0.605469 C 3.140625 0.59375 3.105469 0.585938 3.078125 0.585938 C 3.03125 0.585938 3.023438 0.578125 3.023438 0.550781 C 3.023438 0.523438 3.019531 0.519531 3.007812 0.535156 C 3 0.546875 2.992188 0.550781 2.984375 0.539062 C 2.980469 0.53125 2.949219 0.523438 2.917969 0.523438 C 2.886719 0.523438 2.855469 0.515625 2.847656 0.503906 C 2.835938 0.488281 2.832031 0.484375 2.832031 0.503906 C 2.832031 0.519531 2.828125 0.519531 2.808594 0.503906 C 2.792969 0.488281 2.792969 0.480469 2.804688 0.46875 C 2.816406 0.460938 2.8125 0.460938 2.792969 0.460938 C 2.660156 0.472656 2.53125 0.457031 2.523438 0.429688 C 2.519531 0.410156 2.503906 0.402344 2.457031 0.402344 C 2.421875 0.398438 2.378906 0.398438 2.363281 0.398438 C 2.347656 0.394531 2.335938 0.382812 2.335938 0.371094 C 2.335938 0.355469 2.316406 0.347656 2.265625 0.347656 C 2.164062 0.347656 2.097656 0.332031 2.097656 0.304688 C 2.097656 0.289062 2.066406 0.285156 1.96875 0.285156 C 1.851562 0.285156 1.839844 0.28125 1.839844 0.253906 C 1.839844 0.222656 1.828125 0.222656 1.722656 0.222656 C 1.617188 0.222656 1.601562 0.21875 1.59375 0.1875 C 1.589844 0.171875 1.582031 0.15625 1.574219 0.160156 C 1.46875 0.179688 1.214844 0.15625 1.214844 0.125 C 1.214844 0.0976562 1.207031 0.09375 1 0.09375 C 0.789062 0.09375 0.773438 0.0898438 0.78125 0.0429688 C 0.78125 0.0351562 0.683594 0.03125 0.558594 0.03125 C 0.421875 0.03125 0.335938 0.0273438 0.335938 0.015625 C 0.335938 0.0078125 0.269531 0 0.167969 0 L 0 0 L 0 12.496094 M 5.089844 5.5625 C 5.109375 5.578125 5.167969 5.59375 5.21875 5.597656 C 5.277344 5.601562 5.351562 5.625 5.425781 5.664062 C 5.488281 5.695312 5.550781 5.71875 5.558594 5.71875 C 5.589844 5.71875 5.710938 5.789062 5.710938 5.808594 C 5.710938 5.816406 5.726562 5.828125 5.746094 5.835938 C 5.789062 5.84375 5.832031 5.875 5.929688 5.964844 C 6.011719 6.035156 6.015625 6.042969 6.152344 6.15625 C 6.214844 6.207031 6.261719 6.257812 6.265625 6.285156 C 6.273438 6.308594 6.292969 6.34375 6.316406 6.367188 C 6.339844 6.386719 6.371094 6.4375 6.386719 6.472656 C 6.402344 6.507812 6.425781 6.542969 6.433594 6.546875 C 6.441406 6.554688 6.449219 6.59375 6.449219 6.636719 C 6.449219 6.695312 6.457031 6.722656 6.484375 6.75 C 6.539062 6.804688 6.546875 7.246094 6.496094 7.296875 C 6.476562 7.316406 6.457031 7.359375 6.453125 7.390625 C 6.449219 7.421875 6.433594 7.460938 6.425781 7.472656 C 6.414062 7.484375 6.402344 7.507812 6.394531 7.523438 C 6.390625 7.539062 6.375 7.550781 6.359375 7.550781 C 6.347656 7.550781 6.335938 7.566406 6.335938 7.582031 C 6.335938 7.597656 6.320312 7.628906 6.304688 7.652344 C 6.285156 7.671875 6.273438 7.699219 6.273438 7.707031 C 6.273438 7.71875 6.257812 7.730469 6.242188 7.734375 C 6.230469 7.742188 6.179688 7.773438 6.136719 7.808594 C 6.09375 7.839844 6.042969 7.867188 6.027344 7.867188 C 6.007812 7.867188 5.980469 7.878906 5.964844 7.894531 C 5.898438 7.964844 5.875 7.976562 5.808594 7.988281 C 5.769531 7.992188 5.722656 8.007812 5.707031 8.023438 C 5.660156 8.0625 4.828125 8.0625 4.769531 8.023438 C 4.746094 8.007812 4.695312 7.992188 4.652344 7.984375 C 4.609375 7.980469 4.570312 7.96875 4.566406 7.960938 C 4.558594 7.945312 4.410156 7.875 4.351562 7.859375 C 4.328125 7.851562 4.289062 7.824219 4.261719 7.792969 C 4.226562 7.761719 4.191406 7.742188 4.167969 7.742188 C 4.136719 7.742188 4.097656 7.714844 4.035156 7.648438 C 3.984375 7.597656 3.910156 7.53125 3.871094 7.5 C 3.832031 7.46875 3.78125 7.410156 3.761719 7.371094 C 3.742188 7.332031 3.71875 7.296875 3.710938 7.296875 C 3.703125 7.296875 3.6875 7.277344 3.675781 7.253906 C 3.664062 7.230469 3.636719 7.1875 3.613281 7.15625 C 3.542969 7.0625 3.492188 6.945312 3.484375 6.84375 C 3.476562 6.789062 3.464844 6.730469 3.457031 6.714844 C 3.433594 6.675781 3.433594 6.527344 3.457031 6.46875 C 3.464844 6.441406 3.476562 6.375 3.488281 6.316406 C 3.496094 6.257812 3.515625 6.179688 3.53125 6.148438 C 3.558594 6.082031 3.917969 5.71875 3.953125 5.71875 C 3.964844 5.71875 3.992188 5.703125 4.015625 5.6875 C 4.039062 5.671875 4.066406 5.65625 4.078125 5.65625 C 4.089844 5.65625 4.113281 5.644531 4.128906 5.628906 C 4.148438 5.617188 4.199219 5.601562 4.242188 5.597656 C 4.296875 5.589844 4.339844 5.578125 4.359375 5.558594 C 4.398438 5.515625 5.019531 5.519531 5.089844 5.5625 M 5.574219 17.035156 C 5.589844 17.050781 5.617188 17.0625 5.660156 17.0625 C 5.707031 17.0625 5.738281 17.070312 5.761719 17.09375 C 5.78125 17.117188 5.8125 17.125 5.863281 17.125 C 5.914062 17.125 5.945312 17.132812 5.964844 17.15625 C 5.980469 17.171875 6.007812 17.1875 6.027344 17.195312 C 6.070312 17.207031 6.144531 17.273438 6.144531 17.300781 C 6.144531 17.308594 6.152344 17.316406 6.164062 17.316406 C 6.1875 17.316406 6.273438 17.386719 6.273438 17.40625 C 6.273438 17.417969 6.285156 17.429688 6.304688 17.441406 C 6.320312 17.449219 6.335938 17.46875 6.335938 17.480469 C 6.335938 17.492188 6.347656 17.503906 6.359375 17.507812 C 6.371094 17.511719 6.386719 17.539062 6.390625 17.5625 C 6.398438 17.585938 6.429688 17.636719 6.460938 17.675781 L 6.519531 17.746094 L 6.519531 18.351562 L 6.460938 18.421875 C 6.421875 18.46875 6.394531 18.519531 6.386719 18.570312 C 6.378906 18.613281 6.363281 18.652344 6.351562 18.652344 C 6.34375 18.65625 6.335938 18.667969 6.335938 18.679688 C 6.335938 18.6875 6.320312 18.710938 6.304688 18.722656 C 6.285156 18.738281 6.273438 18.765625 6.273438 18.78125 C 6.273438 18.816406 6.1875 18.910156 6.160156 18.910156 C 6.148438 18.910156 6.117188 18.933594 6.082031 18.964844 C 5.917969 19.117188 5.878906 19.148438 5.828125 19.15625 C 5.800781 19.160156 5.777344 19.171875 5.777344 19.179688 C 5.777344 19.210938 5.695312 19.269531 5.644531 19.28125 C 5.613281 19.285156 5.582031 19.300781 5.578125 19.3125 C 5.574219 19.328125 5.546875 19.335938 5.519531 19.335938 C 5.488281 19.335938 5.46875 19.347656 5.457031 19.367188 C 5.445312 19.386719 5.421875 19.398438 5.394531 19.398438 C 5.367188 19.398438 5.34375 19.414062 5.332031 19.429688 C 5.316406 19.457031 5.292969 19.460938 5.199219 19.460938 C 5.113281 19.460938 5.089844 19.46875 5.089844 19.484375 C 5.089844 19.539062 4.519531 19.546875 4.449219 19.496094 C 4.417969 19.472656 4.382812 19.464844 4.308594 19.464844 C 4.195312 19.460938 4.160156 19.453125 4.160156 19.421875 C 4.160156 19.40625 4.140625 19.398438 4.105469 19.398438 C 4.066406 19.398438 4.042969 19.390625 4.03125 19.367188 C 4.019531 19.347656 4 19.335938 3.972656 19.335938 C 3.945312 19.335938 3.917969 19.324219 3.90625 19.304688 C 3.898438 19.289062 3.878906 19.273438 3.867188 19.273438 C 3.84375 19.273438 3.6875 19.121094 3.65625 19.066406 C 3.644531 19.046875 3.625 19.011719 3.617188 18.996094 C 3.609375 18.976562 3.59375 18.957031 3.585938 18.949219 C 3.523438 18.910156 3.464844 18.695312 3.46875 18.5 C 3.46875 18.234375 3.503906 18.097656 3.613281 17.945312 C 3.640625 17.902344 3.664062 17.859375 3.664062 17.847656 C 3.664062 17.835938 3.679688 17.808594 3.695312 17.789062 C 3.714844 17.765625 3.726562 17.742188 3.726562 17.730469 C 3.726562 17.703125 3.785156 17.648438 3.867188 17.597656 C 3.902344 17.574219 3.980469 17.5 4.046875 17.4375 C 4.121094 17.363281 4.195312 17.300781 4.253906 17.273438 C 4.300781 17.25 4.351562 17.222656 4.363281 17.210938 C 4.375 17.199219 4.410156 17.1875 4.441406 17.1875 C 4.472656 17.1875 4.496094 17.183594 4.496094 17.175781 C 4.496094 17.15625 4.570312 17.125 4.617188 17.125 C 4.636719 17.125 4.660156 17.113281 4.667969 17.097656 C 4.679688 17.082031 4.714844 17.070312 4.792969 17.066406 C 4.855469 17.0625 4.914062 17.046875 4.929688 17.039062 C 4.984375 16.988281 5.539062 16.984375 5.574219 17.035156 M 1.0625 24.921875 C 1.058594 24.933594 1.046875 24.945312 1.039062 24.945312 C 1.03125 24.945312 1.023438 24.933594 1.023438 24.921875 C 1.023438 24.90625 1.035156 24.898438 1.046875 24.898438 C 1.0625 24.898438 1.066406 24.90625 1.0625 24.921875 "/>
<path style=" stroke:none;fill-rule:evenodd;fill:rgb(61.176471%,84.313725%,56.470588%);fill-opacity:1;" d="M 4.265625 5.628906 C 4.015625 5.71875 3.96875 5.746094 3.785156 5.921875 C 3.601562 6.101562 3.550781 6.171875 3.550781 6.261719 C 3.550781 6.292969 3.539062 6.355469 3.519531 6.398438 C 3.476562 6.503906 3.476562 6.667969 3.519531 6.777344 C 3.539062 6.820312 3.550781 6.882812 3.550781 6.910156 C 3.550781 6.964844 3.597656 7.0625 3.652344 7.113281 C 3.667969 7.128906 3.679688 7.152344 3.679688 7.167969 C 3.679688 7.183594 3.710938 7.226562 3.746094 7.265625 C 3.78125 7.304688 3.808594 7.347656 3.808594 7.359375 C 3.808594 7.394531 4.136719 7.699219 4.199219 7.71875 C 4.230469 7.730469 4.289062 7.765625 4.328125 7.796875 C 4.367188 7.828125 4.417969 7.851562 4.441406 7.851562 C 4.460938 7.851562 4.480469 7.859375 4.488281 7.867188 C 4.503906 7.894531 4.648438 7.957031 4.722656 7.96875 C 4.761719 7.976562 4.804688 7.992188 4.824219 8.003906 C 4.871094 8.035156 5.625 8.035156 5.671875 8.003906 C 5.691406 7.992188 5.730469 7.976562 5.761719 7.972656 C 5.796875 7.964844 5.855469 7.9375 5.890625 7.910156 C 5.929688 7.882812 5.984375 7.847656 6.011719 7.839844 C 6.039062 7.828125 6.082031 7.796875 6.105469 7.769531 C 6.128906 7.746094 6.160156 7.726562 6.167969 7.726562 C 6.195312 7.726562 6.273438 7.636719 6.273438 7.609375 C 6.273438 7.597656 6.296875 7.5625 6.328125 7.527344 C 6.363281 7.488281 6.386719 7.441406 6.394531 7.398438 C 6.398438 7.359375 6.417969 7.320312 6.449219 7.292969 C 6.53125 7.21875 6.515625 6.835938 6.429688 6.757812 C 6.410156 6.738281 6.398438 6.707031 6.398438 6.660156 C 6.398438 6.59375 6.34375 6.46875 6.289062 6.40625 C 6.273438 6.386719 6.246094 6.351562 6.234375 6.324219 C 6.167969 6.195312 5.597656 5.734375 5.503906 5.734375 C 5.492188 5.734375 5.453125 5.722656 5.421875 5.703125 C 5.171875 5.574219 4.546875 5.53125 4.265625 5.628906 M 5.03125 5.617188 C 5.066406 5.632812 5.132812 5.648438 5.179688 5.65625 C 5.46875 5.699219 6.144531 6.140625 6.199219 6.324219 C 6.207031 6.34375 6.234375 6.386719 6.265625 6.425781 C 6.328125 6.5 6.347656 6.550781 6.367188 6.667969 C 6.378906 6.726562 6.394531 6.761719 6.417969 6.78125 C 6.480469 6.824219 6.484375 7.21875 6.425781 7.28125 C 6.402344 7.304688 6.371094 7.359375 6.359375 7.40625 C 6.34375 7.453125 6.320312 7.503906 6.308594 7.515625 C 6.292969 7.53125 6.261719 7.574219 6.238281 7.609375 C 6.214844 7.640625 6.171875 7.6875 6.136719 7.710938 C 6.105469 7.730469 6.082031 7.753906 6.082031 7.761719 C 6.078125 7.765625 6.039062 7.792969 5.988281 7.820312 C 5.9375 7.847656 5.871094 7.886719 5.839844 7.90625 C 5.8125 7.929688 5.773438 7.945312 5.757812 7.945312 C 5.742188 7.945312 5.695312 7.960938 5.65625 7.976562 C 5.542969 8.023438 4.941406 8.023438 4.835938 7.976562 C 4.796875 7.960938 4.746094 7.945312 4.726562 7.945312 C 4.703125 7.945312 4.632812 7.917969 4.570312 7.886719 C 4.507812 7.851562 4.4375 7.820312 4.414062 7.816406 C 4.390625 7.808594 4.351562 7.789062 4.324219 7.765625 C 4.300781 7.746094 4.25 7.71875 4.214844 7.703125 C 4.148438 7.671875 3.839844 7.382812 3.839844 7.347656 C 3.839844 7.335938 3.8125 7.296875 3.777344 7.257812 C 3.742188 7.21875 3.710938 7.175781 3.710938 7.160156 C 3.710938 7.144531 3.695312 7.117188 3.679688 7.097656 C 3.632812 7.058594 3.585938 6.960938 3.585938 6.914062 C 3.585938 6.894531 3.570312 6.828125 3.550781 6.765625 C 3.511719 6.644531 3.515625 6.5 3.558594 6.359375 C 3.570312 6.316406 3.589844 6.242188 3.597656 6.199219 C 3.640625 6.027344 4.105469 5.65625 4.28125 5.65625 C 4.308594 5.65625 4.339844 5.648438 4.34375 5.640625 C 4.378906 5.585938 4.910156 5.570312 5.03125 5.617188 M 5.015625 17.042969 C 4.980469 17.058594 4.910156 17.078125 4.855469 17.082031 C 4.804688 17.085938 4.738281 17.101562 4.710938 17.117188 C 4.6875 17.128906 4.648438 17.140625 4.628906 17.140625 C 4.613281 17.140625 4.578125 17.15625 4.554688 17.171875 C 4.535156 17.191406 4.496094 17.203125 4.476562 17.203125 C 4.441406 17.203125 4.394531 17.226562 4.332031 17.28125 C 4.316406 17.296875 4.28125 17.3125 4.257812 17.324219 C 4.230469 17.332031 4.140625 17.40625 4.050781 17.488281 C 3.964844 17.570312 3.875 17.648438 3.847656 17.664062 C 3.816406 17.679688 3.78125 17.726562 3.742188 17.796875 C 3.621094 18.023438 3.597656 18.0625 3.574219 18.089844 C 3.558594 18.105469 3.550781 18.152344 3.550781 18.226562 C 3.550781 18.3125 3.542969 18.355469 3.519531 18.398438 C 3.503906 18.433594 3.488281 18.480469 3.488281 18.503906 C 3.488281 18.527344 3.503906 18.574219 3.519531 18.609375 C 3.539062 18.644531 3.550781 18.703125 3.550781 18.742188 C 3.550781 18.816406 3.597656 18.910156 3.652344 18.957031 C 3.667969 18.96875 3.679688 18.992188 3.679688 19.011719 C 3.679688 19.140625 4.132812 19.425781 4.363281 19.449219 C 4.441406 19.453125 4.484375 19.464844 4.503906 19.484375 C 4.542969 19.523438 4.972656 19.515625 5.046875 19.472656 C 5.074219 19.460938 5.125 19.445312 5.160156 19.445312 C 5.207031 19.445312 5.273438 19.421875 5.394531 19.363281 C 5.488281 19.316406 5.585938 19.273438 5.613281 19.265625 C 5.640625 19.261719 5.679688 19.234375 5.699219 19.210938 C 5.71875 19.1875 5.769531 19.152344 5.808594 19.132812 C 5.847656 19.113281 5.921875 19.058594 5.976562 19.011719 C 6.027344 18.960938 6.101562 18.902344 6.136719 18.875 C 6.175781 18.847656 6.214844 18.804688 6.226562 18.777344 C 6.238281 18.75 6.25 18.726562 6.257812 18.71875 C 6.285156 18.699219 6.335938 18.597656 6.335938 18.5625 C 6.335938 18.539062 6.367188 18.472656 6.410156 18.414062 L 6.480469 18.304688 L 6.480469 17.785156 L 6.4375 17.726562 C 6.410156 17.695312 6.371094 17.628906 6.34375 17.578125 C 6.253906 17.40625 5.9375 17.140625 5.824219 17.140625 C 5.792969 17.140625 5.75 17.125 5.726562 17.109375 C 5.707031 17.09375 5.664062 17.078125 5.632812 17.078125 C 5.601562 17.078125 5.554688 17.0625 5.527344 17.046875 C 5.460938 17 5.113281 17 5.015625 17.042969 M 5.515625 17.0625 C 5.546875 17.078125 5.597656 17.09375 5.621094 17.09375 C 5.648438 17.09375 5.683594 17.105469 5.695312 17.117188 C 5.710938 17.132812 5.761719 17.148438 5.804688 17.15625 C 5.855469 17.164062 5.90625 17.183594 5.9375 17.210938 C 5.964844 17.230469 5.992188 17.25 6 17.25 C 6.046875 17.25 6.261719 17.488281 6.324219 17.605469 C 6.359375 17.671875 6.40625 17.742188 6.421875 17.757812 C 6.453125 17.789062 6.457031 17.808594 6.457031 18.046875 L 6.457031 18.304688 L 6.410156 18.355469 C 6.355469 18.421875 6.304688 18.519531 6.304688 18.5625 C 6.304688 18.597656 6.28125 18.644531 6.238281 18.695312 C 6.222656 18.714844 6.207031 18.746094 6.203125 18.769531 C 6.195312 18.796875 6.171875 18.824219 6.144531 18.839844 C 6.121094 18.851562 6.039062 18.917969 5.960938 18.988281 C 5.886719 19.054688 5.800781 19.121094 5.769531 19.128906 C 5.738281 19.140625 5.703125 19.164062 5.691406 19.1875 C 5.675781 19.207031 5.636719 19.230469 5.605469 19.242188 C 5.570312 19.253906 5.472656 19.296875 5.386719 19.339844 C 5.300781 19.378906 5.203125 19.417969 5.171875 19.421875 C 5.136719 19.429688 5.058594 19.445312 4.996094 19.464844 C 4.84375 19.503906 4.585938 19.507812 4.527344 19.46875 C 4.503906 19.453125 4.441406 19.433594 4.378906 19.429688 C 4.164062 19.410156 3.710938 19.125 3.710938 19.011719 C 3.710938 18.996094 3.691406 18.960938 3.667969 18.929688 C 3.597656 18.84375 3.585938 18.808594 3.585938 18.738281 C 3.585938 18.707031 3.570312 18.652344 3.554688 18.625 C 3.523438 18.5625 3.523438 18.429688 3.554688 18.394531 C 3.566406 18.378906 3.578125 18.3125 3.585938 18.238281 C 3.589844 18.136719 3.601562 18.097656 3.625 18.070312 C 3.644531 18.050781 3.679688 17.992188 3.703125 17.9375 C 3.730469 17.886719 3.757812 17.832031 3.769531 17.820312 C 3.777344 17.808594 3.792969 17.777344 3.796875 17.753906 C 3.804688 17.726562 3.828125 17.703125 3.863281 17.683594 C 3.894531 17.667969 3.984375 17.59375 4.0625 17.519531 C 4.140625 17.441406 4.234375 17.363281 4.273438 17.34375 C 4.3125 17.324219 4.367188 17.289062 4.398438 17.265625 C 4.425781 17.238281 4.46875 17.21875 4.488281 17.21875 C 4.511719 17.21875 4.550781 17.207031 4.570312 17.1875 C 4.59375 17.171875 4.625 17.15625 4.640625 17.15625 C 4.660156 17.15625 4.714844 17.140625 4.765625 17.125 C 4.8125 17.109375 4.878906 17.09375 4.910156 17.09375 C 4.941406 17.09375 4.996094 17.078125 5.03125 17.0625 C 5.128906 17.019531 5.433594 17.015625 5.515625 17.0625 "/>
<path style=" stroke:none;fill-rule:evenodd;fill:rgb(50.980392%,80%,41.568627%);fill-opacity:1;" d="M 4.710938 1.230469 C 4.707031 1.242188 4.714844 1.253906 4.726562 1.257812 C 4.761719 1.269531 4.773438 1.257812 4.746094 1.234375 C 4.730469 1.222656 4.71875 1.21875 4.710938 1.230469 M 4.359375 5.558594 C 4.339844 5.578125 4.296875 5.589844 4.242188 5.597656 C 4.199219 5.601562 4.148438 5.617188 4.128906 5.628906 C 4.113281 5.644531 4.089844 5.65625 4.078125 5.65625 C 4.066406 5.65625 4.039062 5.671875 4.015625 5.6875 C 3.992188 5.703125 3.964844 5.71875 3.953125 5.71875 C 3.917969 5.71875 3.558594 6.082031 3.53125 6.148438 C 3.515625 6.179688 3.496094 6.257812 3.488281 6.316406 C 3.476562 6.375 3.464844 6.441406 3.457031 6.46875 C 3.433594 6.527344 3.433594 6.675781 3.457031 6.714844 C 3.464844 6.730469 3.476562 6.789062 3.484375 6.84375 C 3.492188 6.945312 3.542969 7.0625 3.613281 7.15625 C 3.636719 7.1875 3.664062 7.230469 3.675781 7.253906 C 3.6875 7.277344 3.703125 7.296875 3.710938 7.296875 C 3.71875 7.296875 3.742188 7.332031 3.761719 7.371094 C 3.78125 7.410156 3.832031 7.46875 3.871094 7.5 C 3.910156 7.53125 3.984375 7.597656 4.035156 7.648438 C 4.097656 7.714844 4.136719 7.742188 4.167969 7.742188 C 4.191406 7.742188 4.226562 7.761719 4.261719 7.792969 C 4.289062 7.824219 4.328125 7.851562 4.351562 7.859375 C 4.410156 7.875 4.558594 7.945312 4.566406 7.960938 C 4.570312 7.96875 4.609375 7.980469 4.652344 7.984375 C 4.695312 7.992188 4.746094 8.007812 4.769531 8.023438 C 4.828125 8.0625 5.660156 8.0625 5.707031 8.023438 C 5.722656 8.007812 5.769531 7.992188 5.808594 7.988281 C 5.875 7.976562 5.898438 7.964844 5.964844 7.894531 C 5.980469 7.878906 6.007812 7.867188 6.027344 7.867188 C 6.042969 7.867188 6.09375 7.839844 6.136719 7.808594 C 6.179688 7.773438 6.230469 7.742188 6.242188 7.734375 C 6.257812 7.730469 6.273438 7.71875 6.273438 7.707031 C 6.273438 7.699219 6.285156 7.671875 6.304688 7.652344 C 6.320312 7.628906 6.335938 7.597656 6.335938 7.582031 C 6.335938 7.566406 6.347656 7.550781 6.359375 7.550781 C 6.375 7.550781 6.390625 7.539062 6.394531 7.523438 C 6.402344 7.507812 6.414062 7.484375 6.425781 7.472656 C 6.433594 7.460938 6.449219 7.421875 6.453125 7.390625 C 6.457031 7.359375 6.476562 7.316406 6.496094 7.296875 C 6.546875 7.246094 6.539062 6.804688 6.484375 6.75 C 6.457031 6.722656 6.449219 6.695312 6.449219 6.636719 C 6.449219 6.59375 6.441406 6.554688 6.433594 6.546875 C 6.425781 6.542969 6.402344 6.507812 6.386719 6.472656 C 6.371094 6.4375 6.339844 6.386719 6.316406 6.367188 C 6.292969 6.34375 6.273438 6.308594 6.265625 6.285156 C 6.261719 6.257812 6.214844 6.207031 6.152344 6.15625 C 6.015625 6.042969 6.011719 6.035156 5.929688 5.964844 C 5.832031 5.875 5.789062 5.84375 5.746094 5.835938 C 5.726562 5.828125 5.710938 5.816406 5.710938 5.808594 C 5.710938 5.789062 5.589844 5.71875 5.558594 5.71875 C 5.550781 5.71875 5.488281 5.695312 5.425781 5.664062 C 5.351562 5.625 5.277344 5.601562 5.21875 5.597656 C 5.167969 5.59375 5.109375 5.578125 5.089844 5.5625 C 5.019531 5.519531 4.398438 5.515625 4.359375 5.558594 M 5.164062 5.625 C 5.277344 5.652344 5.394531 5.6875 5.421875 5.703125 C 5.453125 5.722656 5.492188 5.734375 5.503906 5.734375 C 5.597656 5.734375 6.167969 6.195312 6.234375 6.324219 C 6.246094 6.351562 6.273438 6.386719 6.289062 6.40625 C 6.34375 6.46875 6.398438 6.59375 6.398438 6.660156 C 6.398438 6.707031 6.410156 6.738281 6.429688 6.757812 C 6.515625 6.835938 6.53125 7.21875 6.449219 7.292969 C 6.417969 7.320312 6.398438 7.359375 6.394531 7.398438 C 6.386719 7.441406 6.363281 7.488281 6.328125 7.527344 C 6.296875 7.5625 6.273438 7.597656 6.273438 7.609375 C 6.273438 7.636719 6.195312 7.726562 6.167969 7.726562 C 6.160156 7.726562 6.128906 7.746094 6.105469 7.769531 C 6.082031 7.796875 6.039062 7.828125 6.011719 7.839844 C 5.984375 7.847656 5.929688 7.882812 5.890625 7.910156 C 5.855469 7.9375 5.796875 7.964844 5.761719 7.972656 C 5.730469 7.976562 5.691406 7.992188 5.671875 8.003906 C 5.625 8.035156 4.871094 8.035156 4.824219 8.003906 C 4.804688 7.992188 4.761719 7.976562 4.722656 7.96875 C 4.648438 7.957031 4.503906 7.894531 4.488281 7.867188 C 4.480469 7.859375 4.460938 7.851562 4.441406 7.851562 C 4.417969 7.851562 4.367188 7.828125 4.328125 7.796875 C 4.289062 7.765625 4.230469 7.730469 4.199219 7.71875 C 4.136719 7.699219 3.808594 7.394531 3.808594 7.359375 C 3.808594 7.347656 3.78125 7.304688 3.746094 7.265625 C 3.710938 7.226562 3.679688 7.183594 3.679688 7.167969 C 3.679688 7.152344 3.667969 7.128906 3.652344 7.113281 C 3.597656 7.0625 3.550781 6.964844 3.550781 6.910156 C 3.550781 6.882812 3.539062 6.820312 3.519531 6.777344 C 3.476562 6.667969 3.476562 6.503906 3.519531 6.398438 C 3.539062 6.355469 3.550781 6.292969 3.550781 6.261719 C 3.550781 6.144531 3.859375 5.800781 4.039062 5.71875 C 4.386719 5.558594 4.761719 5.527344 5.164062 5.625 M 12.277344 11.628906 C 12.277344 11.65625 12.277344 11.671875 12.28125 11.65625 C 12.285156 11.640625 12.285156 11.613281 12.28125 11.597656 C 12.277344 11.585938 12.277344 11.597656 12.277344 11.628906 M 12.277344 13.386719 C 12.277344 13.433594 12.28125 13.449219 12.285156 13.425781 C 12.289062 13.398438 12.285156 13.363281 12.285156 13.34375 C 12.28125 13.324219 12.277344 13.34375 12.277344 13.386719 M 4.992188 17.007812 C 4.96875 17.011719 4.941406 17.027344 4.929688 17.039062 C 4.914062 17.046875 4.855469 17.0625 4.792969 17.066406 C 4.714844 17.070312 4.679688 17.082031 4.667969 17.097656 C 4.660156 17.113281 4.636719 17.125 4.617188 17.125 C 4.570312 17.125 4.496094 17.15625 4.496094 17.175781 C 4.496094 17.183594 4.472656 17.1875 4.441406 17.1875 C 4.410156 17.1875 4.375 17.199219 4.363281 17.210938 C 4.351562 17.222656 4.300781 17.25 4.253906 17.273438 C 4.195312 17.300781 4.121094 17.363281 4.046875 17.4375 C 3.980469 17.5 3.902344 17.574219 3.867188 17.597656 C 3.785156 17.648438 3.726562 17.703125 3.726562 17.730469 C 3.726562 17.742188 3.714844 17.765625 3.695312 17.789062 C 3.679688 17.808594 3.664062 17.835938 3.664062 17.847656 C 3.664062 17.859375 3.640625 17.902344 3.613281 17.945312 C 3.503906 18.097656 3.46875 18.234375 3.46875 18.5 C 3.464844 18.695312 3.523438 18.910156 3.585938 18.949219 C 3.59375 18.957031 3.609375 18.976562 3.617188 18.996094 C 3.625 19.011719 3.644531 19.046875 3.65625 19.066406 C 3.6875 19.121094 3.84375 19.273438 3.867188 19.273438 C 3.878906 19.273438 3.898438 19.289062 3.90625 19.304688 C 3.917969 19.324219 3.945312 19.335938 3.972656 19.335938 C 4 19.335938 4.019531 19.347656 4.03125 19.367188 C 4.042969 19.390625 4.066406 19.398438 4.105469 19.398438 C 4.140625 19.398438 4.160156 19.40625 4.160156 19.421875 C 4.160156 19.453125 4.195312 19.460938 4.308594 19.464844 C 4.382812 19.464844 4.417969 19.472656 4.449219 19.496094 C 4.519531 19.546875 5.089844 19.539062 5.089844 19.484375 C 5.089844 19.46875 5.113281 19.460938 5.199219 19.460938 C 5.292969 19.460938 5.316406 19.457031 5.332031 19.429688 C 5.34375 19.414062 5.367188 19.398438 5.394531 19.398438 C 5.421875 19.398438 5.445312 19.386719 5.457031 19.367188 C 5.46875 19.347656 5.488281 19.335938 5.519531 19.335938 C 5.546875 19.335938 5.574219 19.328125 5.578125 19.3125 C 5.582031 19.300781 5.613281 19.285156 5.644531 19.28125 C 5.695312 19.269531 5.777344 19.210938 5.777344 19.179688 C 5.777344 19.171875 5.800781 19.160156 5.828125 19.15625 C 5.878906 19.148438 5.917969 19.117188 6.082031 18.964844 C 6.117188 18.933594 6.148438 18.910156 6.160156 18.910156 C 6.1875 18.910156 6.273438 18.816406 6.273438 18.78125 C 6.273438 18.765625 6.285156 18.738281 6.304688 18.722656 C 6.320312 18.710938 6.335938 18.6875 6.335938 18.679688 C 6.335938 18.667969 6.34375 18.65625 6.351562 18.652344 C 6.363281 18.652344 6.378906 18.613281 6.386719 18.570312 C 6.394531 18.519531 6.421875 18.46875 6.460938 18.421875 L 6.519531 18.351562 L 6.519531 17.746094 L 6.460938 17.675781 C 6.429688 17.636719 6.398438 17.585938 6.390625 17.5625 C 6.386719 17.539062 6.371094 17.511719 6.359375 17.507812 C 6.347656 17.503906 6.335938 17.492188 6.335938 17.480469 C 6.335938 17.46875 6.320312 17.449219 6.304688 17.441406 C 6.285156 17.429688 6.273438 17.417969 6.273438 17.40625 C 6.273438 17.386719 6.1875 17.316406 6.164062 17.316406 C 6.152344 17.316406 6.144531 17.308594 6.144531 17.300781 C 6.144531 17.273438 6.070312 17.207031 6.027344 17.195312 C 6.007812 17.1875 5.980469 17.171875 5.964844 17.15625 C 5.945312 17.132812 5.914062 17.125 5.863281 17.125 C 5.8125 17.125 5.78125 17.117188 5.761719 17.09375 C 5.738281 17.070312 5.707031 17.0625 5.660156 17.0625 C 5.617188 17.0625 5.589844 17.050781 5.574219 17.035156 C 5.554688 17.007812 5.105469 16.988281 4.992188 17.007812 M 5.527344 17.046875 C 5.554688 17.0625 5.601562 17.078125 5.632812 17.078125 C 5.664062 17.078125 5.707031 17.09375 5.726562 17.109375 C 5.75 17.125 5.792969 17.140625 5.824219 17.140625 C 5.9375 17.140625 6.253906 17.40625 6.34375 17.578125 C 6.371094 17.628906 6.410156 17.695312 6.4375 17.726562 L 6.480469 17.785156 L 6.480469 18.304688 L 6.410156 18.414062 C 6.367188 18.472656 6.335938 18.539062 6.335938 18.5625 C 6.335938 18.597656 6.285156 18.699219 6.257812 18.71875 C 6.25 18.726562 6.238281 18.75 6.226562 18.777344 C 6.214844 18.804688 6.175781 18.847656 6.136719 18.875 C 6.101562 18.902344 6.027344 18.960938 5.976562 19.011719 C 5.921875 19.058594 5.847656 19.113281 5.808594 19.132812 C 5.769531 19.152344 5.71875 19.1875 5.699219 19.210938 C 5.679688 19.234375 5.640625 19.261719 5.613281 19.265625 C 5.585938 19.273438 5.488281 19.316406 5.394531 19.363281 C 5.273438 19.421875 5.207031 19.445312 5.160156 19.445312 C 5.125 19.445312 5.074219 19.460938 5.046875 19.472656 C 4.972656 19.515625 4.542969 19.523438 4.503906 19.484375 C 4.484375 19.464844 4.441406 19.453125 4.363281 19.449219 C 4.132812 19.425781 3.679688 19.140625 3.679688 19.011719 C 3.679688 18.992188 3.667969 18.96875 3.652344 18.957031 C 3.597656 18.910156 3.550781 18.816406 3.550781 18.742188 C 3.550781 18.703125 3.539062 18.644531 3.519531 18.609375 C 3.503906 18.574219 3.488281 18.527344 3.488281 18.503906 C 3.488281 18.480469 3.503906 18.433594 3.519531 18.398438 C 3.542969 18.355469 3.550781 18.3125 3.550781 18.226562 C 3.550781 18.152344 3.558594 18.105469 3.574219 18.089844 C 3.597656 18.0625 3.621094 18.023438 3.742188 17.796875 C 3.78125 17.726562 3.816406 17.679688 3.847656 17.664062 C 3.875 17.648438 3.964844 17.570312 4.050781 17.488281 C 4.140625 17.40625 4.230469 17.332031 4.257812 17.324219 C 4.28125 17.3125 4.316406 17.296875 4.332031 17.28125 C 4.394531 17.226562 4.441406 17.203125 4.476562 17.203125 C 4.496094 17.203125 4.535156 17.191406 4.554688 17.171875 C 4.578125 17.15625 4.613281 17.140625 4.628906 17.140625 C 4.648438 17.140625 4.6875 17.128906 4.710938 17.117188 C 4.738281 17.101562 4.804688 17.085938 4.855469 17.082031 C 4.910156 17.078125 4.980469 17.058594 5.015625 17.042969 C 5.113281 17 5.460938 17 5.527344 17.046875 "/>
<path style=" stroke:none;fill-rule:evenodd;fill:rgb(73.72549%,89.411765%,70.588235%);fill-opacity:1;" d="M 4.390625 5.609375 C 4.371094 5.617188 4.351562 5.628906 4.34375 5.640625 C 4.339844 5.648438 4.308594 5.65625 4.28125 5.65625 C 4.105469 5.65625 3.640625 6.027344 3.597656 6.199219 C 3.589844 6.242188 3.570312 6.316406 3.558594 6.359375 C 3.515625 6.5 3.511719 6.644531 3.550781 6.765625 C 3.570312 6.828125 3.585938 6.894531 3.585938 6.914062 C 3.585938 6.960938 3.632812 7.058594 3.679688 7.097656 C 3.695312 7.117188 3.710938 7.144531 3.710938 7.160156 C 3.710938 7.175781 3.742188 7.21875 3.777344 7.257812 C 3.8125 7.296875 3.839844 7.335938 3.839844 7.347656 C 3.839844 7.382812 4.148438 7.671875 4.214844 7.703125 C 4.25 7.71875 4.300781 7.746094 4.324219 7.765625 C 4.351562 7.789062 4.390625 7.808594 4.414062 7.816406 C 4.4375 7.820312 4.507812 7.851562 4.570312 7.886719 C 4.632812 7.917969 4.703125 7.945312 4.726562 7.945312 C 4.746094 7.945312 4.796875 7.960938 4.835938 7.976562 C 4.941406 8.023438 5.542969 8.023438 5.65625 7.976562 C 5.695312 7.960938 5.742188 7.945312 5.757812 7.945312 C 5.773438 7.945312 5.8125 7.929688 5.839844 7.90625 C 5.871094 7.886719 5.9375 7.847656 5.988281 7.820312 C 6.039062 7.792969 6.078125 7.765625 6.082031 7.761719 C 6.082031 7.753906 6.105469 7.730469 6.136719 7.710938 C 6.171875 7.6875 6.214844 7.640625 6.238281 7.609375 C 6.261719 7.574219 6.292969 7.53125 6.308594 7.515625 C 6.320312 7.503906 6.34375 7.453125 6.359375 7.40625 C 6.371094 7.359375 6.402344 7.304688 6.425781 7.28125 C 6.484375 7.21875 6.480469 6.824219 6.417969 6.78125 C 6.394531 6.761719 6.378906 6.726562 6.367188 6.667969 C 6.347656 6.550781 6.328125 6.5 6.265625 6.425781 C 6.234375 6.386719 6.207031 6.34375 6.199219 6.324219 C 6.144531 6.140625 5.46875 5.699219 5.179688 5.65625 C 5.132812 5.648438 5.066406 5.632812 5.03125 5.617188 C 4.960938 5.589844 4.453125 5.582031 4.390625 5.609375 M 5.03125 5.65625 C 5.066406 5.671875 5.125 5.6875 5.160156 5.6875 C 5.195312 5.6875 5.242188 5.699219 5.265625 5.710938 C 5.289062 5.722656 5.332031 5.738281 5.363281 5.742188 C 5.390625 5.75 5.425781 5.761719 5.441406 5.773438 C 5.453125 5.785156 5.480469 5.800781 5.503906 5.804688 C 5.527344 5.8125 5.5625 5.832031 5.582031 5.847656 C 5.601562 5.863281 5.628906 5.875 5.636719 5.875 C 5.644531 5.875 5.6875 5.90625 5.730469 5.941406 C 5.777344 5.976562 5.816406 6.003906 5.824219 6.003906 C 5.851562 6.003906 6.175781 6.328125 6.175781 6.351562 C 6.175781 6.367188 6.199219 6.402344 6.226562 6.433594 C 6.289062 6.496094 6.320312 6.570312 6.320312 6.644531 C 6.320312 6.699219 6.351562 6.769531 6.398438 6.804688 C 6.417969 6.820312 6.425781 6.867188 6.429688 7.027344 L 6.433594 7.226562 L 6.378906 7.285156 C 6.34375 7.324219 6.320312 7.367188 6.316406 7.410156 C 6.300781 7.507812 6.105469 7.726562 5.984375 7.777344 C 5.953125 7.789062 5.910156 7.820312 5.886719 7.84375 C 5.859375 7.867188 5.816406 7.886719 5.78125 7.894531 C 5.746094 7.898438 5.707031 7.914062 5.691406 7.929688 C 5.640625 7.972656 4.917969 7.976562 4.816406 7.929688 C 4.773438 7.914062 4.722656 7.898438 4.707031 7.898438 C 4.691406 7.898438 4.621094 7.871094 4.550781 7.835938 C 4.480469 7.800781 4.410156 7.773438 4.398438 7.773438 C 4.382812 7.773438 4.351562 7.753906 4.328125 7.734375 C 4.304688 7.710938 4.253906 7.679688 4.21875 7.664062 C 4.144531 7.628906 3.871094 7.363281 3.871094 7.328125 C 3.871094 7.316406 3.847656 7.28125 3.816406 7.253906 C 3.789062 7.222656 3.757812 7.183594 3.753906 7.160156 C 3.746094 7.136719 3.722656 7.09375 3.695312 7.0625 C 3.628906 6.976562 3.617188 6.945312 3.617188 6.867188 C 3.613281 6.832031 3.605469 6.789062 3.589844 6.769531 C 3.558594 6.726562 3.558594 6.441406 3.589844 6.378906 C 3.601562 6.355469 3.617188 6.292969 3.625 6.246094 C 3.636719 6.15625 3.925781 5.816406 3.992188 5.8125 C 4.003906 5.8125 4.03125 5.800781 4.050781 5.78125 C 4.074219 5.765625 4.109375 5.746094 4.132812 5.742188 C 4.15625 5.734375 4.183594 5.722656 4.191406 5.710938 C 4.203125 5.695312 4.242188 5.6875 4.28125 5.6875 C 4.328125 5.6875 4.355469 5.675781 4.375 5.65625 C 4.417969 5.609375 4.933594 5.609375 5.03125 5.65625 M 5.03125 17.0625 C 4.996094 17.078125 4.941406 17.09375 4.910156 17.09375 C 4.878906 17.09375 4.8125 17.109375 4.765625 17.125 C 4.714844 17.140625 4.660156 17.15625 4.640625 17.15625 C 4.625 17.15625 4.59375 17.171875 4.570312 17.1875 C 4.550781 17.207031 4.511719 17.21875 4.488281 17.21875 C 4.46875 17.21875 4.425781 17.238281 4.398438 17.265625 C 4.367188 17.289062 4.3125 17.324219 4.273438 17.34375 C 4.234375 17.363281 4.140625 17.441406 4.0625 17.519531 C 3.984375 17.59375 3.894531 17.667969 3.863281 17.683594 C 3.828125 17.703125 3.804688 17.726562 3.796875 17.753906 C 3.792969 17.777344 3.777344 17.808594 3.769531 17.820312 C 3.757812 17.832031 3.730469 17.886719 3.703125 17.9375 C 3.679688 17.992188 3.644531 18.050781 3.625 18.070312 C 3.601562 18.097656 3.589844 18.136719 3.585938 18.238281 C 3.578125 18.3125 3.566406 18.378906 3.554688 18.394531 C 3.523438 18.429688 3.523438 18.5625 3.554688 18.625 C 3.570312 18.652344 3.585938 18.707031 3.585938 18.738281 C 3.585938 18.808594 3.597656 18.84375 3.667969 18.929688 C 3.691406 18.960938 3.710938 18.996094 3.710938 19.011719 C 3.710938 19.125 4.164062 19.410156 4.378906 19.429688 C 4.441406 19.433594 4.503906 19.453125 4.527344 19.46875 C 4.585938 19.507812 4.84375 19.503906 4.996094 19.464844 C 5.058594 19.445312 5.136719 19.429688 5.171875 19.421875 C 5.203125 19.417969 5.300781 19.378906 5.386719 19.339844 C 5.472656 19.296875 5.570312 19.253906 5.605469 19.242188 C 5.636719 19.230469 5.675781 19.207031 5.691406 19.1875 C 5.703125 19.164062 5.738281 19.140625 5.769531 19.128906 C 5.800781 19.121094 5.886719 19.054688 5.960938 18.988281 C 6.039062 18.917969 6.121094 18.851562 6.144531 18.839844 C 6.171875 18.824219 6.195312 18.796875 6.203125 18.769531 C 6.207031 18.746094 6.222656 18.714844 6.238281 18.695312 C 6.28125 18.644531 6.304688 18.597656 6.304688 18.5625 C 6.304688 18.519531 6.355469 18.421875 6.410156 18.355469 L 6.457031 18.304688 L 6.457031 18.046875 C 6.457031 17.808594 6.453125 17.789062 6.421875 17.757812 C 6.40625 17.742188 6.359375 17.671875 6.324219 17.605469 C 6.261719 17.488281 6.046875 17.25 6 17.25 C 5.992188 17.25 5.964844 17.230469 5.9375 17.210938 C 5.90625 17.183594 5.855469 17.164062 5.804688 17.15625 C 5.761719 17.148438 5.710938 17.132812 5.695312 17.117188 C 5.683594 17.105469 5.648438 17.09375 5.621094 17.09375 C 5.597656 17.09375 5.546875 17.078125 5.515625 17.0625 C 5.433594 17.015625 5.128906 17.019531 5.03125 17.0625 M 5.507812 17.09375 C 5.542969 17.109375 5.59375 17.125 5.617188 17.125 C 5.636719 17.125 5.667969 17.136719 5.683594 17.148438 C 5.703125 17.160156 5.746094 17.175781 5.78125 17.179688 C 5.839844 17.191406 5.914062 17.226562 5.9375 17.253906 C 5.941406 17.257812 5.964844 17.273438 5.984375 17.285156 C 6.039062 17.3125 6.238281 17.496094 6.238281 17.515625 C 6.238281 17.546875 6.339844 17.722656 6.378906 17.765625 C 6.425781 17.8125 6.425781 17.8125 6.425781 18.050781 L 6.425781 18.285156 L 6.363281 18.359375 C 6.332031 18.398438 6.304688 18.441406 6.304688 18.457031 C 6.304688 18.46875 6.292969 18.488281 6.28125 18.496094 C 6.269531 18.507812 6.253906 18.550781 6.25 18.589844 C 6.242188 18.636719 6.226562 18.675781 6.207031 18.691406 C 6.191406 18.707031 6.175781 18.734375 6.175781 18.75 C 6.175781 18.769531 6.15625 18.792969 6.125 18.808594 C 6.09375 18.824219 6.019531 18.886719 5.957031 18.949219 C 5.890625 19.007812 5.808594 19.074219 5.773438 19.09375 C 5.734375 19.113281 5.691406 19.144531 5.671875 19.160156 C 5.65625 19.175781 5.613281 19.199219 5.585938 19.214844 C 5.554688 19.226562 5.46875 19.265625 5.390625 19.304688 C 5.316406 19.339844 5.222656 19.371094 5.183594 19.378906 C 5.144531 19.382812 5.085938 19.398438 5.054688 19.410156 C 4.960938 19.453125 4.597656 19.460938 4.511719 19.417969 C 4.472656 19.402344 4.394531 19.382812 4.335938 19.378906 C 4.242188 19.371094 4.125 19.328125 4.058594 19.277344 C 4.046875 19.269531 4.023438 19.257812 4.003906 19.25 C 3.957031 19.234375 3.761719 19.046875 3.761719 19.015625 C 3.761719 19 3.730469 18.953125 3.695312 18.90625 C 3.644531 18.84375 3.632812 18.816406 3.632812 18.757812 C 3.632812 18.71875 3.617188 18.664062 3.601562 18.628906 C 3.558594 18.554688 3.558594 18.445312 3.597656 18.394531 C 3.621094 18.367188 3.628906 18.328125 3.628906 18.234375 C 3.632812 18.136719 3.640625 18.105469 3.664062 18.078125 C 3.683594 18.0625 3.695312 18.035156 3.695312 18.023438 C 3.695312 18.007812 3.710938 17.980469 3.726562 17.960938 C 3.746094 17.941406 3.761719 17.914062 3.761719 17.902344 C 3.761719 17.890625 3.773438 17.863281 3.792969 17.839844 C 3.808594 17.816406 3.824219 17.785156 3.824219 17.769531 C 3.824219 17.753906 3.84375 17.734375 3.878906 17.71875 C 3.90625 17.707031 3.996094 17.632812 4.074219 17.558594 C 4.152344 17.480469 4.25 17.398438 4.292969 17.378906 C 4.335938 17.355469 4.375 17.328125 4.378906 17.316406 C 4.386719 17.296875 4.511719 17.234375 4.546875 17.234375 C 4.558594 17.234375 4.578125 17.226562 4.585938 17.21875 C 4.609375 17.195312 4.800781 17.140625 4.921875 17.125 C 4.980469 17.117188 5.042969 17.097656 5.066406 17.085938 C 5.136719 17.050781 5.417969 17.054688 5.507812 17.09375 "/>
</g>
</svg>
